<svg xmlns="http://www.w3.org/2000/svg" width="161" height="36" viewBox="0 0 161 36" fill="none">
  <path fill-rule="evenodd" clip-rule="evenodd" d="M23.7674 20.1963C22.4413 23.1197 19.5243 25.1481 16.1369 25.1481C11.5001 25.1481 7.74356 21.3555 7.74356 16.6784C7.74356 11.9981 11.5001 8.20453 16.1369 8.20453C19.5243 8.20453 22.4413 10.235 23.7674 13.1522V3.23212C21.5191 1.93044 18.9169 1.17896 16.1369 1.17896C7.65972 1.17896 0.785767 8.11782 0.785767 16.6784C0.785767 25.2348 7.65972 32.1747 16.1369 32.1747C18.9169 32.1747 21.5191 31.4263 23.7674 30.1215V20.1963Z" fill="#848484"/>
  <path fill-rule="evenodd" clip-rule="evenodd" d="M123.255 27.5088C123.255 29.4939 124.615 30.7212 126.276 30.7212C127.814 30.7212 128.958 29.7107 129.44 28.5927V26.426C128.958 25.306 127.814 24.2964 126.276 24.2964C124.615 24.2964 123.255 25.5228 123.255 27.5088ZM129.583 24.6206V23.1764H130.869V31.8402H129.44V30.5396C128.814 31.2807 127.76 32.056 126.115 32.056C123.664 32.056 121.825 30.1081 121.825 27.5088C121.825 24.9096 123.664 22.9607 126.115 22.9607C127.76 22.9607 128.814 23.737 129.583 24.6206Z" fill="#848484"/>
  <path fill-rule="evenodd" clip-rule="evenodd" d="M102.171 23.176L99.0238 27.3825L102.349 31.8398H100.705L98.2007 28.4106L95.6804 31.8398H94.0353L97.3787 27.3825L94.2152 23.176H95.8583L98.2007 26.3719L100.528 23.176H102.171Z" fill="#848484"/>
  <path fill-rule="evenodd" clip-rule="evenodd" d="M106.966 24.3323C105.214 24.3323 103.821 25.505 103.821 27.5086C103.821 29.5122 105.214 30.6849 106.966 30.6849C108.717 30.6849 110.113 29.5122 110.113 27.5086C110.113 25.505 108.717 24.3323 106.966 24.3323ZM106.966 22.9604C109.308 22.9604 111.543 24.5491 111.543 27.5086C111.543 30.4691 109.308 32.0557 106.966 32.0557C104.644 32.0557 102.39 30.4691 102.39 27.5086C102.39 24.5491 104.644 22.9604 106.966 22.9604Z" fill="#848484"/>
  <path fill-rule="evenodd" clip-rule="evenodd" d="M114.58 30.5773H117.8C118.692 30.5773 119.336 30.3069 119.336 29.35C119.336 28.3188 118.567 28.0875 117.851 28.0875H114.58V30.5773ZM114.58 26.8416H117.708C118.458 26.8416 119.049 26.5526 119.049 25.6679C119.049 24.6924 118.314 24.4385 117.708 24.4385H114.58V26.8416ZM113.151 31.8408V23.176H117.851C119.353 23.176 120.497 23.9884 120.497 25.5234C120.497 26.4266 119.998 27.1482 119.353 27.4351C120.05 27.6705 120.765 28.3569 120.765 29.4398C120.765 30.8643 119.854 31.8408 117.995 31.8408H113.151Z" fill="#848484"/>
  <path fill-rule="evenodd" clip-rule="evenodd" d="M133.032 31.8405V23.1768H134.462V26.8413H139.431V23.1768H140.86V31.8405H139.431V28.176H134.462V31.8405H133.032Z" fill="#848484"/>
  <path fill-rule="evenodd" clip-rule="evenodd" d="M142.873 31.8405V23.1768H144.301V29.5117L149.557 23.1768H150.772V31.8405H149.343V25.5045L144.089 31.8405H142.873Z" fill="#848484"/>
  <path fill-rule="evenodd" clip-rule="evenodd" d="M156.828 24.2962C155.362 24.2962 154.004 25.1808 153.897 26.8758H159.456C159.582 25.9561 159.009 24.2962 156.828 24.2962ZM156.738 22.9604C160.046 22.9604 161.261 25.6856 160.725 28.1424H153.897C154.075 29.9643 155.702 30.722 157.435 30.722C158.492 30.722 159.526 30.432 160.261 30.017V31.425C159.474 31.841 158.35 32.0567 157.222 32.0567C154.683 32.0567 152.466 30.5951 152.466 27.5086C152.466 24.4768 154.701 22.9604 156.738 22.9604Z" fill="#848484"/>
  <path fill-rule="evenodd" clip-rule="evenodd" d="M126.642 14.5301V7.72236H123.8V5.52881H132.045V7.72236H129.204V14.5301H126.642Z" fill="#848484"/>
  <path fill-rule="evenodd" clip-rule="evenodd" d="M118.426 12.7345C116.958 12.7345 116.14 11.4163 116.14 10.0289C116.14 8.64155 116.958 7.32336 118.426 7.32336C119.912 7.32336 120.727 8.64155 120.727 10.0289C120.727 11.4163 119.912 12.7345 118.426 12.7345ZM118.426 5.26709C116.164 5.26709 114.087 6.50477 113.608 8.93265H112.2V5.52928H109.618V14.5296H112.2V11.1252H113.608C114.087 13.5531 116.164 14.7938 118.426 14.7938C121.026 14.7938 123.348 13.1794 123.348 10.0289C123.348 6.87742 121.026 5.26709 118.426 5.26709Z" fill="#848484"/>
  <path fill-rule="evenodd" clip-rule="evenodd" d="M104.942 5.52881H103.119H100.525H100.499L99.5071 11.2176C99.3711 11.9949 98.8241 12.4512 98.093 12.3211V14.5559C98.137 14.5663 98.181 14.5766 98.227 14.5838C100.299 14.9544 101.672 13.8241 102.043 11.6904L102.736 7.72237H104.942V14.5301H107.526V7.72237V5.52881H104.942Z" fill="#848484"/>
  <path fill-rule="evenodd" clip-rule="evenodd" d="M23.8005 31.7101H31.5211V0.714355H23.8005V31.7101Z" fill="#848484"/>
  <path fill-rule="evenodd" clip-rule="evenodd" d="M44.7693 27.6406C44.7693 30.119 42.7786 32.1268 40.3278 32.1268C37.8719 32.1268 35.8832 30.119 35.8832 27.6406C35.8832 25.1631 37.8719 23.1533 40.3278 23.1533C42.7786 23.1533 44.7693 25.1631 44.7693 27.6406Z" fill="#848484"/>
  <path fill-rule="evenodd" clip-rule="evenodd" d="M92.5875 7.3734C91.1213 7.3734 90.3033 8.6916 90.3033 10.079C90.3033 11.4663 91.1213 12.7845 92.5875 12.7845C94.0731 12.7845 94.8901 11.4663 94.8901 10.079C94.8901 8.6916 94.0731 7.3734 92.5875 7.3734ZM92.5875 5.31714C95.1896 5.31714 97.5106 6.92747 97.5106 10.079C97.5106 13.2294 95.1896 14.8439 92.5875 14.8439C90.0058 14.8439 87.6654 13.2294 87.6654 10.079C87.6654 6.92747 90.0058 5.31714 92.5875 5.31714Z" fill="#848484"/>
  <path fill-rule="evenodd" clip-rule="evenodd" d="M60.2978 18.5505C61.5503 18.5505 62.766 18.8396 63.8222 19.398V20.9144C62.9101 20.3013 61.7272 19.9936 60.5493 19.9936C57.9553 19.9936 55.2571 21.5637 55.2397 25.1746C55.2213 28.549 58.0095 30.1748 60.6035 30.1748C61.8897 30.1748 63.0492 29.8683 63.9101 29.253V30.7684C62.8723 31.3103 61.6218 31.6169 60.2794 31.6169C57.1343 31.6169 53.7019 29.38 53.7193 25.1746C53.7377 20.7895 57.0443 18.5505 60.2978 18.5505Z" fill="#848484"/>
  <path fill-rule="evenodd" clip-rule="evenodd" d="M66.6637 31.8171V24.488H63.5002V23.1533H71.2433V24.488H68.0951V31.8171H66.6637Z" fill="#848484"/>
  <path fill-rule="evenodd" clip-rule="evenodd" d="M77.8744 23.9139C76.3366 23.9139 75.1945 24.9245 74.7109 26.0445V28.2101C75.1945 29.3281 76.3366 30.3397 77.8744 30.3397C79.5379 30.3397 80.8957 29.1113 80.8957 27.1263C80.8957 25.1412 79.5379 23.9139 77.8744 23.9139ZM78.0359 22.5781C80.4847 22.5781 82.3271 24.5281 82.3271 27.1263C82.3271 29.7255 80.4847 31.6744 78.0359 31.6744C76.3928 31.6744 75.3387 30.8992 74.7109 30.158V35.4288H73.2815V22.7939H74.5698V24.238C75.3387 23.3544 76.3928 22.5781 78.0359 22.5781Z" fill="#848484"/>
  <path fill-rule="evenodd" clip-rule="evenodd" d="M84.492 27.1263C84.492 29.1113 85.8519 30.3387 87.5154 30.3387C89.0511 30.3387 90.1953 29.3281 90.6789 28.2101V26.0434C90.1953 24.9234 89.0511 23.9139 87.5154 23.9139C85.8519 23.9139 84.492 25.1402 84.492 27.1263ZM90.822 24.238V22.7939H92.1083V31.4576H90.6789V30.157C90.0531 30.8982 88.9969 31.6734 87.3539 31.6734C84.903 31.6734 83.0626 29.7255 83.0626 27.1263C83.0626 24.527 84.903 22.5781 87.3539 22.5781C88.9969 22.5781 90.0531 23.3544 90.822 24.238Z" fill="#848484"/>
  <path fill-rule="evenodd" clip-rule="evenodd" d="M72.8598 12.6612C71.3742 12.6612 70.5491 11.5866 70.5491 10.3097C70.5491 9.03176 71.3742 7.84569 72.8598 7.84569C74.3639 7.84569 75.19 9.03176 75.19 10.3097C75.19 11.5866 74.3639 12.6612 72.8598 12.6612ZM72.9519 5.92671C72.0909 5.92671 71.2525 6.17962 70.5215 6.58427C70.7751 5.89575 71.3098 5.22581 72.3507 4.848C73.9661 4.26374 76.5897 4.15639 76.9752 3.50606V1.28979C76.099 2.14864 72.7576 1.94218 70.6472 3.30787C69.1136 4.30193 67.9653 6.62143 68.1167 9.96802C68.1167 13.0338 70.3221 14.6947 72.9519 14.6947C75.4783 14.6947 77.7328 13.2093 77.7328 10.3097C77.7328 7.40904 75.4783 5.92671 72.9519 5.92671Z" fill="#848484"/>
  <path fill-rule="evenodd" clip-rule="evenodd" d="M59.1614 9.20931C60.1185 6.68749 61.0663 4.14503 61.1123 3.89729C61.1583 4.14503 62.103 6.68749 63.0539 9.20931H59.1614ZM65.0303 14.4181H67.9106L62.6183 1.28979H59.6082L54.2946 14.4181H57.1748C57.1748 14.4181 57.6799 13.102 58.3271 11.4049H63.8862C64.5273 13.102 65.0303 14.4181 65.0303 14.4181Z" fill="#848484"/>
  <path fill-rule="evenodd" clip-rule="evenodd" d="M84.0696 5.31714C85.0522 5.31714 85.9284 5.5432 86.728 5.97469V8.09496C86.0941 7.64386 85.2955 7.39405 84.4387 7.39405C83.0287 7.39405 81.6709 8.28076 81.6709 10.0996C81.6709 11.8256 83.0114 12.8052 84.4009 12.8052C85.3497 12.8052 86.1707 12.5543 86.819 12.1249V14.2638C85.9489 14.6374 85.0338 14.8645 83.9019 14.8645C81.4675 14.8645 79.035 13.4379 79.035 10.2317C79.035 6.78089 81.5953 5.31714 84.0696 5.31714Z" fill="#848484"/>
</svg>