<svg xmlns="http://www.w3.org/2000/svg" width="161" height="41" viewBox="0 0 161 41" fill="none">
  <path d="M7.07573 32.6814L8.94611 26.3338H16.3168L18.0625 32.6814H24.8928L18.1041 8.48721C17.8649 7.15802 16.6553 6.24255 15.3331 6.3901H5.63484V8.67018H6.43841C7.44981 8.67018 7.99014 9.07834 7.99014 9.86652C7.96576 10.5749 7.82528 11.2741 7.5745 11.9355L0.785706 32.6814H7.07573ZM15.3885 22.041H9.91594L12.8254 12.3859L15.3747 22.041H15.3885Z" fill="#848484"/>
  <path d="M32.7485 32.6813V8.40263C32.7988 7.86226 32.6123 7.32679 32.2385 6.93894C31.8647 6.55109 31.3417 6.35025 30.8088 6.38996H24.8374V8.67004H25.2254C26.2368 8.67004 26.6108 9.10636 26.6108 10.1479V32.6672L32.7485 32.6813Z" fill="#848484"/>
  <path d="M43.0979 32.6813V8.40263C43.1483 7.86226 42.9617 7.32679 42.5879 6.93894C42.2142 6.55109 41.6911 6.35025 41.1583 6.38996H35.1869V8.67004H35.5748C36.5862 8.67004 36.9603 9.10636 36.9603 10.1479V32.6672L43.0979 32.6813Z" fill="#848484"/>
  <path d="M53.5997 32.6814V14.9897C53.6552 14.4481 53.4703 13.9096 53.0953 13.5205C52.7203 13.1314 52.1943 12.9322 51.6601 12.977H45.7719V15.2149H46.1182C47.1296 15.2149 47.5037 15.6934 47.5037 16.7208V32.6814H53.5997ZM53.7244 8.75461C53.7244 6.99529 52.436 5.9397 50.2331 5.9397C48.0302 5.9397 46.7278 7.00937 46.7278 8.75461C46.7278 10.4999 48.1133 11.5695 50.2331 11.5695C52.3528 11.5695 53.7244 10.5139 53.7244 8.75461Z" fill="#848484"/>
  <path d="M58.7537 18.621C60.6135 17.6805 62.649 17.1527 64.7251 17.0728C66.3599 17.0728 66.9418 17.6639 66.9418 19.3951V19.8314C64.4618 20.2255 63.686 20.3944 62.2728 20.704C61.4914 20.8866 60.7267 21.1361 59.9868 21.45C57.6052 22.3381 56.1213 24.7557 56.3845 27.3191C56.3845 31.0629 57.9778 32.8785 61.2753 32.8785C62.3858 32.8799 63.4864 32.6649 64.5172 32.2452C65.4618 31.8139 66.3392 31.245 67.122 30.5562V30.8236C67.0519 31.3349 67.222 31.8499 67.5813 32.2149C67.9405 32.5798 68.4475 32.7526 68.9508 32.6815H74.4926V30.5562H74.2155C73.1626 30.5562 72.8301 30.0777 72.8301 28.825V19.4373C72.8301 14.4408 71.1121 12.6956 66.1798 12.6956C64.6168 12.7053 63.0598 12.8942 61.5385 13.2585C60.0857 13.5785 58.6858 14.1094 57.3821 14.8349L58.7676 18.621H58.7537ZM66.9418 23.1952V27.0235C66.1018 28.0042 64.9194 28.6149 63.6444 28.7265C62.5499 28.7265 62.1758 28.1917 62.1758 26.7139C62.1758 25.236 62.4806 24.5886 63.5613 24.1664C64.6486 23.7146 65.7826 23.3888 66.9418 23.1952Z" fill="#848484"/>
  <path d="M83.3319 32.6813V19.3527C84.1183 18.3326 85.3127 17.7234 86.5877 17.6919C87.8762 17.6919 88.181 18.2127 88.181 20.1972V32.6813H94.2355V19.2823C94.2355 16.1578 94.0138 15.1725 93.044 14.117C92.0802 13.1362 90.748 12.6236 89.3864 12.7095C86.9952 12.697 84.7123 13.721 83.1102 15.5244V14.7362C83.1773 14.2179 83.0002 13.6977 82.6323 13.3323C82.2643 12.9668 81.7484 12.7986 81.2399 12.8784H75.4901V15.1162H75.8365C76.8479 15.1162 77.222 15.5948 77.222 16.6222V32.6813H83.3319Z" fill="#848484"/>
  <path d="M112.191 28.5436H103.726L111.803 17.0446V12.9771H99.1539C97.7685 12.9771 97.0618 13.6386 97.0618 15.1023V18.6913H99.3063V18.3395C99.3063 17.4246 99.7774 16.932 100.692 16.932H105.056L96.9095 28.5576V32.6111H112.15V28.5436H112.191Z" fill="#848484"/>
  <path d="M160.932 20.8587C161.123 13.5235 157.38 6.66102 151.156 2.93634C144.933 -0.788349 137.21 -0.788349 130.986 2.93634C124.763 6.66102 121.02 13.5235 121.211 20.8587C121.495 31.7941 130.303 40.5088 141.071 40.5088C151.84 40.5088 160.648 31.7941 160.932 20.8587ZM157.565 20.8587C157.565 30.7109 150.638 37.7482 141.078 37.7482C131.518 37.7482 124.591 30.6124 124.591 20.8587C124.591 11.105 131.518 3.96921 141.078 3.96921C145.51 3.85 149.794 5.59588 152.915 8.79383C156.037 11.9918 157.72 16.3577 157.565 20.8587ZM135.689 32.1184V12.414H132.308C130.646 12.414 129.981 13.0333 129.981 14.7785V32.1747L135.689 32.1184ZM146.468 32.1184H152.176V14.8348C152.176 13.0895 151.511 12.4703 149.834 12.4703H146.468V32.1747V32.1184ZM143.946 32.1184V9.90869C143.946 8.13529 143.323 7.54416 141.632 7.54416H136.562V10.0213H136.866C138.044 10.0213 138.252 10.2887 138.252 11.7243V32.1747L143.946 32.1184Z" fill="#848484"/>
</svg>