<svg xmlns="http://www.w3.org/2000/svg" width="181" height="52" viewBox="0 0 181 52" fill="none">
  <path fill-rule="evenodd" clip-rule="evenodd" d="M35.1509 7.90942H21.8465C16.4547 7.90942 12.0714 12.3591 12.0714 17.8267V31.3271C12.0714 36.794 16.4547 41.2443 21.8465 41.2443H35.1503C40.5372 41.2443 44.9226 36.794 44.9226 31.3271V17.8267C44.9234 12.3591 40.538 7.90942 35.1509 7.90942ZM61.3693 14.7865C60.9965 13.0829 59.9378 11.8931 57.6143 11.8931C55.4285 11.8931 54.2307 13.0829 53.8579 14.7865L52.1709 22.4974H53.9745C54.386 22.4974 54.7954 22.1646 54.8835 21.7567L55.2245 20.188H60.0036L60.3451 21.7567C60.4332 22.1639 60.8419 22.4974 61.2534 22.4974H63.0576L61.3693 14.7865ZM55.6968 18.0147L56.2913 15.2837C56.3868 14.8422 56.7257 14.1675 57.615 14.1675C58.5036 14.1675 58.8418 14.8415 58.9386 15.2837L59.5324 18.0147H55.6968ZM71.5258 14.4684H67.5024V19.0226C67.5024 21.211 66.2702 22.4978 64.5662 22.4978H64.0924L63.6301 20.2736L64.1406 20.1498C64.693 20.0378 65.0109 19.5921 65.0109 18.892V13.6596C65.0109 12.8254 65.6846 12.1431 66.5053 12.1431H74.016V22.4971H71.5258V14.4684ZM95.6628 12.1428H94.7552V10.9393H93.0119C92.6005 10.9393 92.2643 11.2783 92.2643 11.6965V12.1428H91.3567C88.2783 12.1428 86.354 14.2721 86.354 17.3195C86.354 20.3676 88.2783 22.4968 91.3567 22.4968H92.2643V23.7519H94.0075C94.419 23.7519 94.7552 23.4108 94.7552 22.9955V22.4968H95.6628C98.7412 22.4968 100.665 20.3676 100.665 17.3195C100.665 14.2721 98.7412 12.1428 95.6628 12.1428ZM91.3567 20.2101C89.6515 20.2101 88.8449 19.1152 88.8449 17.3195C88.8449 15.5252 89.6515 14.4303 91.3567 14.4303H92.2643V20.2101H91.3567ZM95.6628 20.2101H94.7552V14.4303H95.6628C97.3687 14.4303 98.1726 15.5252 98.1726 17.3195C98.1726 19.1152 97.3681 20.2101 95.6628 20.2101ZM78.1718 14.7687H81.7464C84.181 14.7687 85.5529 16.4295 85.5529 18.633C85.5529 20.8372 83.9181 22.4974 81.7464 22.4974H76.4285C76.0178 22.4974 75.681 22.1563 75.681 21.7395V12.1443H78.1718V14.7687ZM78.1718 20.1729H81.7464C82.3539 20.1729 83.0628 19.6193 83.0628 18.6324C83.0628 17.6448 82.3539 17.0932 81.7464 17.0932H78.1718V20.1729ZM109.955 14.7865C109.581 13.0829 108.523 11.8931 106.199 11.8931C104.015 11.8931 102.816 13.0829 102.442 14.7865L100.755 22.4974H102.56C102.97 22.4974 103.38 22.1646 103.467 21.7567L103.809 20.188H108.589L108.929 21.7567C109.017 22.1639 109.426 22.4974 109.837 22.4974H111.641L109.955 14.7865ZM104.282 18.0147L104.874 15.2837C104.972 14.8422 105.311 14.1675 106.199 14.1675C107.088 14.1675 107.425 14.8415 107.523 15.2837L108.116 18.0147H104.282ZM125.116 29.7882C125.116 30.617 124.833 31.2147 124.394 31.6535C125.032 32.1583 125.464 32.8818 125.464 33.8054C125.464 35.6403 124.198 37.0255 122.29 37.0255L115.815 37.0242C115.405 37.0242 115.068 36.6829 115.068 36.2662V27.4279C115.068 27.0104 115.405 26.6699 115.815 26.6699H121.905C123.715 26.6699 125.116 27.9533 125.116 29.7882ZM122.687 29.8398C122.687 29.1961 122.234 28.8193 121.903 28.8193L117.509 28.8185V30.8598H121.903C122.234 30.8191 122.687 30.4883 122.687 29.8398ZM117.508 34.8769H122.103C122.434 34.8769 122.886 34.498 122.886 33.855C122.886 33.2057 122.434 32.8756 122.103 32.8344H117.508V34.8769ZM107.942 26.4318C104.863 26.4318 102.711 28.6566 102.711 31.8471C102.711 35.0361 104.862 37.263 107.942 37.263H108.795C111.875 37.263 114.027 35.0361 114.027 31.8471C114.027 28.6566 111.876 26.4318 108.795 26.4318H107.942ZM105.401 31.8471C105.401 29.9902 106.376 28.5707 108.093 28.5707H108.646C110.361 28.5707 111.335 29.9902 111.335 31.8471C111.335 33.7039 110.361 35.1248 108.646 35.1248H108.093C106.375 35.1242 105.401 33.7039 105.401 31.8471ZM61.7822 28.236L61.4542 26.6699L70.9839 26.6706L70.6558 28.2367C70.5691 28.6542 70.1618 28.9945 69.7517 28.9945H67.5021V37.0234H65.0105V28.9938H62.6884C62.2777 28.9938 61.8697 28.6534 61.7822 28.236ZM145.362 26.6699V30.7813H140.515V26.6699H138.024V37.024H140.515V33.0021H145.362V37.024H147.853V26.6699H145.362ZM86.6903 26.4215C89.0158 26.4215 90.0725 27.6099 90.446 29.3141L92.1329 37.0237H90.3293C89.918 37.0237 89.5079 36.6923 89.4205 36.2844L89.0795 34.715H84.3018L83.9615 36.2844C83.8728 36.6923 83.464 37.0237 83.0527 37.0237H81.2484L82.9367 29.3141C83.3088 27.6106 84.5079 26.4215 86.6903 26.4215ZM85.3679 29.81L84.7748 32.541L88.6092 32.5404L88.0161 29.8114C87.9192 29.3691 87.5809 28.6938 86.6917 28.6938C85.8025 28.6938 85.4642 29.3691 85.3679 29.81ZM135.236 29.3141C134.862 27.6099 133.806 26.4215 131.48 26.4215C129.296 26.4215 128.099 27.6106 127.725 29.3141L126.038 37.0237H127.843C128.253 37.0237 128.662 36.6923 128.75 36.2844L129.092 34.715H133.871L134.213 36.2844C134.302 36.6923 134.71 37.0237 135.12 37.0237H136.926L135.236 29.3141ZM129.563 32.541L130.157 29.81C130.255 29.3691 130.592 28.6938 131.48 28.6938C132.368 28.6938 132.708 29.3691 132.805 29.8114L133.398 32.5404L129.563 32.541ZM62.2301 37.0238V36.9942L61.8755 35.4379C61.7833 35.0307 61.3706 34.6992 60.9605 34.6992H57.3635C55.7882 34.6992 54.8503 33.506 54.8503 31.8465C54.8503 30.1863 55.789 28.9937 57.3635 28.9937H59.7785C60.1898 28.9937 60.602 28.6629 60.6942 28.2558L61.0554 26.6692H57.3635C54.4178 26.6692 52.3594 28.7978 52.3594 31.8458C52.3594 34.8953 54.4171 37.0238 57.3635 37.0238H62.2301ZM77.6641 26.6699L72.3467 26.6706C71.9347 26.6706 71.5991 27.0117 71.5991 27.4285V37.0247H74.0907V34.3982H77.6641C80.1014 34.3982 81.4725 32.7373 81.4725 30.5351C81.4725 28.3322 79.8357 26.6699 77.6641 26.6699ZM77.6641 32.0743H74.0907V28.9973H77.6641C78.272 28.9973 78.9816 29.5481 78.9816 30.5357C78.9816 31.5221 78.272 32.0743 77.6641 32.0743ZM163.603 34.8367H168.969C169.412 34.8367 169.76 35.0348 169.882 35.576L170.214 37.023H161.86C161.449 37.023 161.112 36.6806 161.112 36.2638V27.4256C161.112 27.0081 161.45 26.6676 161.86 26.6676H170.214L169.882 28.1146C169.76 28.6566 169.411 28.8533 168.969 28.8533H163.603V30.8513H169.436V32.8485H163.603V34.8367ZM149.561 37.024V26.6699H152.052V33.5014L156.367 27.2807C156.611 26.9451 157.144 26.6699 157.558 26.6699H159.405V37.024H156.913V30.1934L152.596 36.4133C152.354 36.7489 151.82 37.024 151.407 37.024H149.561ZM103.124 26.6692L99.6473 31.7908L103.198 37.0223H100.836C100.342 37.0223 99.9944 36.871 99.6887 36.3834L97.8362 33.4311H97.5048L95.651 36.3834C95.3467 36.871 94.999 37.0223 94.5029 37.0223H92.2154L95.6925 31.9001L92.1409 26.6692H94.5029C94.9998 26.6692 95.3467 26.8211 95.651 27.3081L97.5048 30.2598H97.8362L99.6887 27.3081C99.9944 26.8219 100.342 26.6692 100.836 26.6692H103.124Z" fill="#848484"/>
  <path d="M39.2287 28.4264L39.216 28.5702C39.1672 29.1297 38.7948 29.6959 38.1766 29.6959C37.704 29.6959 37.3239 29.5308 37.0138 29.1928C36.6414 28.789 36.3065 28.304 35.9674 27.4251C36.9276 24.356 39.89 14.5247 39.89 14.5247H34.2683C34.2683 14.5247 33.7489 16.83 33.2806 18.9271C33.2572 18.8759 33.2333 18.8253 33.2085 18.7767C32.74 17.834 31.9918 16.7861 31.161 16.0496C29.7127 14.7675 28.0093 14.1428 25.9526 14.1428C23.1138 14.1428 20.7124 15.1315 18.8147 17.0822C16.9262 19.0209 15.9286 21.5085 15.9286 24.2748C15.9286 27.3559 16.876 29.8868 18.744 31.7936C20.6926 33.7861 23.0227 34.7143 26.0748 34.7143C27.853 34.7143 29.5501 34.2166 31.1236 33.2366C32.1402 32.6046 33.0679 31.729 33.9447 30.5921C34.3128 31.7144 34.6837 32.4814 35.1273 33.0556C35.8452 33.9824 36.9205 34.5134 38.0771 34.5134C39.2809 34.5134 40.3775 33.9325 40.9406 32.9991C41.4394 32.1707 41.6428 31.143 41.6428 29.4523V28.4264H39.2287ZM29.8051 30.3918C28.9532 31.5667 27.8404 32.1868 26.587 32.1868C25.1267 32.1868 24.0224 31.5707 23.2092 30.2972C22.3564 28.964 21.9247 26.966 21.9247 24.3574C21.9247 21.9656 22.3826 20.0648 23.2848 18.7075C24.1326 17.4335 25.1952 16.8387 26.628 16.8387C27.9033 16.8387 28.8988 17.3376 29.7643 18.4128C30.6918 19.5664 31.4762 21.4726 32.0378 23.9229C31.3328 27.2355 30.6431 29.2381 29.8051 30.3918Z" fill="#FBFAF8"/>
</svg>