<svg xmlns="http://www.w3.org/2000/svg" width="37" height="36" viewBox="0 0 37 36" fill="none">
  <path d="M29 8.725v6.015c0 .413 0 .62-.142.704-.143.083-.337-.01-.726-.194l-1.864-.885c-.131-.063-.197-.094-.268-.094-.07 0-.137.031-.268.094l-1.864.885c-.389.185-.583.277-.726.194C23 15.36 23 15.154 23 14.74V10.9m6 9.075-6 1.5m-15-1.5 6 1.5m-6-7.5 6 1.5" stroke="#fff" stroke-width="2" stroke-linecap="round"/>
  <path d="M18.5 9.256v22.719" stroke="#fff" stroke-width="2"/>
  <path d="m30.623 5.002.035 1zm-5.373.704-.287-.958zM21.01 7.68l-.5-.865zM6.475 5.087l-.062.999zm4.526.62.255-.968zm4.923 2.081-.467.884zm5.018 22.791.47.882zM26 28.425l-.255-.967zm4.478-.616.062.998zm-14.42 2.77-.47.882zM11 28.425l.255-.967zm-4.478-.616-.062.998zM4.5 24.69V7.973h-2V24.69zm30 0V7.875h-2V24.69zM30.588 4.003c-1.706.06-3.924.237-5.625.746l.574 1.916c1.44-.43 3.44-.604 5.12-.663zm-5.625.746c-1.478.443-3.146 1.31-4.453 2.066l1.002 1.73c1.277-.739 2.78-1.507 4.025-1.88zM6.413 6.086c1.45.089 3.101.262 4.332.587l.51-1.934c-1.429-.377-3.242-.559-4.72-.65zm4.332.587c1.458.385 3.244 1.224 4.71 2l.936-1.769c-1.492-.788-3.446-1.719-5.136-2.165zm10.667 24.788c1.488-.793 3.34-1.672 4.843-2.069l-.51-1.934c-1.74.46-3.764 1.433-5.274 2.239zm4.843-2.069c1.217-.321 2.845-.495 4.285-.585l-.125-1.996c-1.468.092-3.257.274-4.67.647zm-9.726.305c-1.51-.806-3.533-1.78-5.274-2.239l-.51 1.934c1.504.397 3.355 1.276 4.843 2.07zm-5.274-2.239c-1.413-.373-3.202-.555-4.67-.647l-.125 1.996c1.44.09 3.068.264 4.285.585zM32.5 24.691c0 1.099-.909 2.047-2.085 2.12l.125 1.996c2.15-.134 3.96-1.883 3.96-4.116zm2-16.816c0-2.13-1.695-3.95-3.912-3.873l.07 2c.998-.036 1.842.785 1.842 1.873zM2.5 24.69c0 2.233 1.81 3.982 3.96 4.116l.125-1.996C5.409 26.738 4.5 25.79 4.5 24.691zm17.971 5.006a4.21 4.21 0 0 1-3.942 0l-.94 1.764a6.21 6.21 0 0 0 5.823 0zm.039-22.883a4.28 4.28 0 0 1-4.12.09l-.934 1.768a6.28 6.28 0 0 0 6.056-.127zM4.5 7.972c0-1.113.884-1.95 1.912-1.886l.123-1.997C4.275 3.95 2.5 5.79 2.5 7.972z" fill="#fff"/>
</svg>
