<svg xmlns="http://www.w3.org/2000/svg" width="37" height="36" viewBox="0 0 37 36" fill="none">
  <path d="M27.7 9.025c2.253.066 3.596.311 4.526 1.22C33.5 11.49 33.5 13.493 33.5 17.5s0 6.01-1.274 7.255S28.9 26 24.8 26H13.2c-4.101 0-6.152 0-7.426-1.245S4.5 21.507 4.5 17.5s0-6.01 1.274-7.255S9.1 9 13.2 9h2.9" stroke="#F5F5F5" stroke-width="2"/>
  <path d="M27.551 29.316a1 1 0 0 0 1.898-.632zm-1-3 1 3 1.898-.632-1-3zM9.332 29.555a1 1 0 0 1-1.664-1.11zm2-3-2 3-1.664-1.11 2-3z" fill="#F5F5F5"/>
  <circle cx="21.5" cy="13" r="7" stroke="#F5F5F5" stroke-width="2"/>
  <path d="M18.5 13a3 3 0 1 0 3-3" stroke="#F5F5F5" stroke-width="2" stroke-linecap="round"/>
  <path d="M9.5 14v2" stroke="#F5F5F5" stroke-width="2" stroke-linecap="round" stroke-linejoin="round"/>
</svg>
