<svg xmlns="http://www.w3.org/2000/svg" width="97" height="97" viewBox="0 0 97 97" fill="none">
  <g clip-path="url(#a)" filter="url(#filter0_d_1_569)" stroke="#252525" stroke-width="2">
    <circle cx="48.5" cy="48.429" r="34" fill="#FBFAF8"/>
    <circle cx="48" cy="51.929" r="6.5"/>
    <path d="M50.5 51.929h-5m2.5-2.5v5" stroke-linecap="round"/>
    <path d="M54.5 39.429c0-3.3 0-4.95-.952-5.975S51.064 32.429 48 32.429s-4.596 0-5.548 1.025-.952 2.675-.952 5.975m-10 13c0-6.129 0-9.193 1.933-11.096s5.044-1.904 11.267-1.904h6.6c6.223 0 9.334 0 11.267 1.904S64.5 46.3 64.5 52.429s0 9.192-1.933 11.096-5.044 1.904-11.267 1.904h-6.6c-6.223 0-9.334 0-11.267-1.904S31.5 58.557 31.5 52.429Z"/>
  </g>
  <defs>
    <clipPath id="a">
      <path fill="#fff" d="M13.5 13.429h70v70h-70z"/>
    </clipPath>
  </defs>
</svg>
