<svg xmlns="http://www.w3.org/2000/svg" width="37" height="36" viewBox="0 0 37 36" fill="none">
  <path d="M22.587 12.234c2.326-1.377 3.49-2.066 4.343-1.577.854.488.834 1.83.793 4.515l-.01.695c-.012.763-.018 1.144.124 1.48.142.335.416.586.965 1.088l.498.457c1.93 1.767 2.894 2.65 2.668 3.642-.227.992-1.493 1.436-4.027 2.323l-.655.23c-.72.252-1.08.378-1.357.63-.276.254-.437.604-.759 1.306l-.293.639c-1.134 2.47-1.7 3.704-2.695 3.828-.993.125-1.756-.943-3.281-3.08l-.395-.552c-.433-.608-.65-.911-.962-1.09-.313-.179-.687-.213-1.434-.282l-.68-.062c-2.63-.24-3.945-.36-4.333-1.276-.388-.915.408-2.019 1.999-4.226l.411-.572c.453-.627.679-.94.761-1.304.083-.363.013-.735-.126-1.48l-.127-.677c-.492-2.618-.737-3.927.016-4.617.754-.69 2.009-.304 4.517.468l.649.2c.713.22 1.07.329 1.433.283.364-.045.695-.241 1.356-.633z" stroke="#fff" stroke-width="2"/>
  <path d="M20.75 9.75 20 9m-5.25-5.25 3 3m-7.5 3L6.5 6m3 12-2.25-2.25M3.5 12l.75.75" stroke="#fff" stroke-width="2" stroke-linecap="round"/>
</svg>
