<svg xmlns="http://www.w3.org/2000/svg" width="37" height="36" viewBox="0 0 37 36" fill="none">
  <path d="M28.25 16.75v7.688c0 1.512-.755 2.928-2.078 3.66C23.969 29.318 20.444 31 17.75 31s-6.22-1.682-8.422-2.902c-1.323-.732-2.078-2.148-2.078-3.66V16.75" stroke="#fff" stroke-width="2" stroke-linecap="round"/>
  <path d="M3.5 22v-4.294c0-1.918 0-2.878.495-3.63.496-.75 1.378-1.129 3.141-1.885L8.75 11.5" stroke="#fff" stroke-width="2" stroke-linecap="round" stroke-linejoin="round"/>
  <path d="m4.387 9.455 10.036-4.706a7.76 7.76 0 0 1 6.652 0l10.037 4.706c2.183 1.024 2.183 4.567 0 5.59L21.075 19.75c-2.131 1-4.52 1-6.651 0l-7.175-3.363" stroke="#fff" stroke-width="2" stroke-linecap="round"/>
</svg>
