<svg xmlns="http://www.w3.org/2000/svg" width="169" height="38" viewBox="0 0 169 38" fill="none">
  <path d="M16.2624 19.1694V36.6887C16.2624 37.3314 16.2624 37.3461 15.6025 37.1793C8.25467 35.3641 3.46285 30.8455 1.51755 23.5699C-0.65429 15.4407 3.33973 6.79625 10.8747 2.86165C12.4421 2.04911 14.1141 1.45479 15.8438 1.09544C16.2132 1.01694 16.2969 1.09556 16.2969 1.46841C16.2706 7.36874 16.2591 13.2691 16.2624 19.1694ZM13.3075 7.34583H13.3716V7.31158H13.3125C13.2909 6.93377 13.1955 6.56371 13.0318 6.2223C13.0079 6.18075 12.9927 6.13483 12.9873 6.08719C12.9818 6.0396 12.9861 5.99128 12.9999 5.9454C13.0137 5.89948 13.0368 5.85685 13.0676 5.8201C13.0985 5.78336 13.1365 5.75333 13.1795 5.7317C13.5408 5.52177 13.8721 5.26431 14.1644 4.96635C13.7212 4.96635 13.3519 4.96635 12.9825 4.96635C12.7117 4.96635 12.6181 4.87306 12.5442 4.64247C12.4568 4.26736 12.3263 3.90356 12.1551 3.55826C12.0172 3.98018 11.8892 4.32374 11.7907 4.67697C11.7857 4.72393 11.7706 4.76917 11.7467 4.80992C11.7227 4.85068 11.6904 4.88604 11.6517 4.91341C11.613 4.94077 11.5691 4.9596 11.5226 4.96874C11.4761 4.97789 11.4281 4.97703 11.382 4.96635C11.0028 4.96635 10.6235 4.96635 10.1064 4.96635C10.5398 5.28524 10.85 5.53536 11.18 5.75613C11.2503 5.79283 11.3035 5.85543 11.3283 5.93054C11.3532 6.00565 11.3477 6.08748 11.313 6.15862C11.1465 6.51543 11.0463 6.89948 11.0175 7.29191C11.0175 7.25266 10.9732 7.25266 10.9486 7.29191C10.9441 7.30628 10.9441 7.32164 10.9486 7.33601L11.0028 7.2869C11.3869 7.03179 11.7562 6.59035 12.1502 6.56582C12.5442 6.54129 12.9037 7.12996 13.3322 7.33601L13.3075 7.34583ZM10.8747 33.2298C11.2391 33.1955 11.4558 32.9161 11.702 32.71C11.751 32.6522 11.8122 32.6056 11.8811 32.5737C11.95 32.5418 12.025 32.5253 12.1009 32.5253C12.1769 32.5253 12.252 32.5418 12.3209 32.5737C12.3898 32.6056 12.4509 32.6522 12.4999 32.71C12.7412 32.9259 12.9923 33.0975 13.3716 33.3575C13.2287 32.8669 13.1302 32.5137 12.9923 32.1506C12.946 32.0589 12.9383 31.9525 12.9706 31.855C13.0029 31.7576 13.0727 31.6769 13.1648 31.6306C13.5042 31.4263 13.8168 31.1806 14.0955 30.8995C13.6572 30.8995 13.283 30.8995 12.9087 30.8995C12.8622 30.9086 12.8144 30.9081 12.7682 30.898C12.722 30.888 12.6783 30.8686 12.64 30.841C12.6017 30.8134 12.5694 30.7781 12.5453 30.7376C12.5212 30.697 12.5057 30.6521 12.4999 30.6053C12.3915 30.2226 12.2536 29.8449 12.0911 29.369C11.9335 29.8596 11.8006 30.2423 11.6873 30.625C11.6814 30.6682 11.6667 30.7097 11.6442 30.7471C11.6217 30.7846 11.5918 30.817 11.5564 30.8427C11.521 30.8684 11.4807 30.8866 11.4381 30.8964C11.3954 30.9061 11.3512 30.9072 11.3081 30.8995C10.919 30.8995 10.525 30.8995 10.003 30.8995C10.4314 31.2085 10.7368 31.4491 11.0619 31.66C11.1406 31.7001 11.2005 31.769 11.229 31.8524C11.2575 31.9358 11.2523 32.027 11.2145 32.1066C11.0614 32.4621 10.9507 32.8341 10.8846 33.2152L10.8402 33.2643H10.8796L10.8747 33.2298ZM6.54576 8.72442C6.38324 9.27389 6.24047 9.70567 6.13705 10.1325C6.13439 10.1727 6.12311 10.2116 6.10391 10.247C6.0847 10.2824 6.05806 10.3134 6.0258 10.3376C5.99354 10.3618 5.95646 10.3788 5.91701 10.3874C5.87756 10.396 5.83664 10.3962 5.79719 10.3877C5.38842 10.3877 4.97476 10.3877 4.45765 10.3877C4.87626 10.6967 5.18654 10.9467 5.52142 11.1626C5.56594 11.1825 5.60563 11.2118 5.63781 11.2484C5.67 11.2849 5.69392 11.3278 5.7079 11.3743C5.72194 11.4209 5.72573 11.47 5.71903 11.5181C5.71233 11.5662 5.69529 11.6122 5.66913 11.6532C5.53124 12.0261 5.41799 12.4087 5.26039 12.8895C5.52824 12.7201 5.7834 12.5316 6.02378 12.3254C6.08317 12.2404 6.16236 12.1709 6.25456 12.123C6.34675 12.075 6.44919 12.0501 6.55315 12.0501C6.65716 12.0501 6.7596 12.075 6.85174 12.123C6.94393 12.1709 7.02312 12.2404 7.08257 12.3254C7.3258 12.5353 7.58426 12.7271 7.85576 12.8993C7.69817 12.4087 7.58987 11.9967 7.44213 11.6091C7.42124 11.5753 7.4079 11.5376 7.40312 11.4982C7.3983 11.4588 7.40219 11.4188 7.41435 11.3811C7.42651 11.3433 7.44671 11.3087 7.4736 11.2795C7.50053 11.2503 7.53338 11.227 7.57012 11.2117C7.91978 10.9762 8.25467 10.7212 8.6782 10.4121C8.18572 10.4121 7.77696 10.4121 7.39283 10.4121C7.34304 10.4235 7.29138 10.4243 7.24134 10.4142C7.19126 10.4042 7.14393 10.3836 7.10246 10.3539C7.06099 10.3242 7.02627 10.2859 7.00081 10.2417C6.9753 10.1976 6.95949 10.1487 6.95452 10.098C6.87572 9.65646 6.73295 9.25427 6.57043 8.72442H6.54576ZM7.57505 28.108C7.41745 27.6174 7.30911 27.2199 7.16629 26.8422C7.14531 26.8041 7.13226 26.7623 7.12812 26.719C7.12398 26.6758 7.12876 26.6323 7.14211 26.5909C7.1555 26.5495 7.17722 26.5112 7.20593 26.4785C7.23464 26.4459 7.26976 26.4194 7.30916 26.4007C7.66896 26.1809 7.99986 25.9172 8.29412 25.6157C7.85581 25.6157 7.48148 25.6157 7.11211 25.6157C7.06247 25.6263 7.01116 25.6267 6.96142 25.6167C6.91167 25.6066 6.86449 25.5865 6.82293 25.5575C6.78131 25.5284 6.7462 25.4912 6.71971 25.448C6.69316 25.4049 6.67587 25.3567 6.66888 25.3066C6.57831 24.9008 6.43943 24.5074 6.2552 24.1343C6.1173 24.5513 5.96956 24.929 5.87106 25.3117C5.86648 25.3587 5.85205 25.4042 5.82876 25.4454C5.80541 25.4865 5.7737 25.5221 5.73568 25.5503C5.69766 25.5785 5.65411 25.5986 5.60787 25.609C5.56164 25.6194 5.51377 25.62 5.46726 25.6109C5.07328 25.6109 4.67436 25.6109 4.17203 25.6109C4.56602 25.9102 4.85165 26.1457 5.15699 26.3468C5.21071 26.3703 5.25869 26.405 5.29773 26.4486C5.33677 26.4922 5.36593 26.5439 5.38321 26.5998C5.40051 26.6556 5.40554 26.7145 5.39794 26.7725C5.39035 26.8305 5.37032 26.886 5.33921 26.9356C5.20132 27.2741 5.12247 27.6321 4.98458 28.0884C5.39334 27.794 5.71352 27.5979 6.01393 27.3378C6.07938 27.2731 6.16788 27.2367 6.26017 27.2367C6.35241 27.2367 6.44091 27.2731 6.50641 27.3378C6.85607 27.588 7.19091 27.8136 7.59967 28.108H7.57505ZM2.3203 18.1784C2.71921 18.4776 3.01467 18.7278 3.33971 18.9339C3.38422 18.9537 3.42391 18.9829 3.4561 19.0194C3.48828 19.0559 3.51223 19.0989 3.52625 19.1454C3.54027 19.1919 3.54406 19.241 3.53738 19.2891C3.53068 19.3373 3.51366 19.3835 3.48748 19.4245C3.35943 19.7777 3.25107 20.1406 3.0984 20.6067C3.51208 20.3123 3.83711 20.116 4.13752 19.8609C4.16659 19.8293 4.20198 19.804 4.24141 19.7867C4.28083 19.7694 4.32342 19.7605 4.36651 19.7605C4.4096 19.7605 4.45225 19.7694 4.49168 19.7867C4.5311 19.804 4.56649 19.8293 4.59556 19.8609C4.89597 20.1013 5.21607 20.3172 5.62483 20.6165C5.48693 20.1701 5.3983 19.8266 5.27025 19.5028C5.14221 19.179 5.18652 19.0662 5.44261 18.9092C5.69869 18.7522 6.03358 18.4825 6.42757 18.198C6.09952 18.1794 5.77064 18.1794 5.44261 18.198C4.98953 18.2569 4.71867 18.1342 4.64972 17.6338C4.57271 17.3204 4.47061 17.0135 4.34439 16.7164C4.20649 17.1334 4.08826 17.457 4.00454 17.7857C3.92082 18.1144 3.79771 18.2371 3.45297 18.2028C3.08427 18.1757 2.71442 18.1676 2.34489 18.1784H2.3203Z" fill="#848484"/>
  <path d="M27.8749 24.0956C24.861 24.0956 21.8469 24.0956 18.8329 24.0956C18.4636 24.0956 18.3405 24.0072 18.3405 23.6392C18.3405 20.2672 18.3405 16.8935 18.3405 13.5181C18.3405 13.16 18.5276 13.1894 18.7591 13.1943H28.8353C31.4159 13.1943 33.9915 13.1943 36.5721 13.1943C36.6323 13.1845 36.6938 13.1866 36.7531 13.2005C36.8125 13.2145 36.8684 13.2399 36.9179 13.2755C36.9673 13.3111 37.0091 13.356 37.0411 13.4078C37.0731 13.4595 37.0945 13.5171 37.104 13.5771C38.1537 16.8816 38.256 20.4124 37.3995 23.7717C37.3257 24.0857 37.1681 24.1152 36.907 24.1152C33.8931 24.1152 30.8791 24.1152 27.87 24.1152L27.8749 24.0956Z" fill="#848484"/>
  <path d="M72.0011 18.6203C72.7231 18.8487 73.3923 19.2172 73.971 19.7045C74.7137 20.4105 75.2101 21.3349 75.3874 22.3422C75.5647 23.3495 75.4135 24.3868 74.956 25.3023C74.0547 27.2648 72.464 28.2115 70.3463 28.3145C66.9926 28.4764 63.6338 28.398 60.28 28.4225C60.0092 28.4225 59.9648 28.3292 59.9648 28.0888C59.9648 22.1755 59.9648 16.2655 59.9648 10.3587C59.9648 10.0447 60.0732 9.99072 60.349 9.99072C63.3334 10.0251 66.3179 9.94156 69.2974 10.0446C70.5645 10.0039 71.808 10.3893 72.8285 11.1386C73.4096 11.5868 73.8696 12.172 74.167 12.8414C74.465 13.5107 74.5906 14.2433 74.5334 14.9731C74.4763 15.703 74.2379 16.407 73.84 17.0223C73.4416 17.6375 72.8959 18.1446 72.2522 18.4977C72.1735 18.4977 72.0947 18.5418 72.0011 18.6203ZM66.4262 25.2777C67.2043 25.2777 67.9824 25.2777 68.7606 25.2777C69.3924 25.3061 70.0193 25.1549 70.568 24.8412C70.9693 24.5608 71.2722 24.1615 71.4333 23.7C71.5938 23.2385 71.6046 22.7383 71.4643 22.2703C71.3476 21.804 71.0856 21.3867 70.7157 21.0781C70.3459 20.7695 69.8869 20.5857 69.4057 20.5532C67.5835 20.3226 65.7564 20.4502 63.9293 20.411C63.6634 20.411 63.6585 20.5483 63.6585 20.7494C63.6585 22.1476 63.6585 23.5509 63.6585 24.9541C63.6585 25.2239 63.7225 25.3121 64.0032 25.3072C64.8109 25.2483 65.6185 25.258 66.4262 25.258V25.2777ZM66.4508 13.0912C65.525 13.0912 64.7468 13.0912 63.9884 13.0912C63.7619 13.0912 63.6732 13.1403 63.6732 13.3856C63.6732 14.5925 63.6732 15.8044 63.6732 17.0112C63.6732 17.2516 63.7471 17.3154 63.9786 17.3104C64.7764 17.3104 65.5693 17.3104 66.3622 17.3104C67.2314 17.3408 68.1016 17.3145 68.9674 17.2319C69.4978 17.2027 69.9952 16.9654 70.3508 16.5719C70.7059 16.1784 70.8901 15.6608 70.8635 15.1322C70.8635 13.9891 70.2183 13.312 68.9723 13.1698C68.1341 13.0913 67.2925 13.0585 66.4508 13.0716V13.0912Z" fill="#848484"/>
  <path d="M119.871 22.0546L122.584 17.6392C124.091 15.1862 125.598 12.7331 127.105 10.2801C127.156 10.1754 127.237 10.0883 127.338 10.0305C127.439 9.97268 127.555 9.94682 127.672 9.95624C128.657 9.95624 129.632 9.95624 130.597 9.95624C130.848 9.95624 130.966 9.98087 130.966 10.2899C130.966 16.2164 130.966 22.1445 130.966 28.0743C130.966 28.3441 130.868 28.3883 130.631 28.3883C129.701 28.3883 128.77 28.3883 127.844 28.3883C127.509 28.3883 127.46 28.2803 127.46 27.981C127.46 24.3506 127.46 20.7251 127.46 17.0946V16.5597C127.278 16.653 127.233 16.8099 127.155 16.9375C124.856 20.6203 122.558 24.3096 120.26 28.0055C120.202 28.1299 120.107 28.2336 119.988 28.302C119.869 28.3706 119.732 28.4008 119.595 28.3883C118.61 28.3883 117.586 28.3883 116.581 28.3883C116.33 28.3883 116.256 28.3245 116.256 28.0644C116.256 22.138 116.256 16.2098 116.256 10.2801C116.256 10.0152 116.34 9.95624 116.586 9.95624C117.517 9.95624 118.447 9.95624 119.378 9.95624C119.713 9.95624 119.762 10.0741 119.762 10.3685C119.762 14.0873 119.762 17.8059 119.762 21.5247V22.0153L119.871 22.0546Z" fill="#848484"/>
  <path d="M113.188 19.0417C113.265 20.7831 112.927 22.5179 112.203 24.1049C110.79 26.9258 108.431 28.3731 105.309 28.6528C103.529 28.8642 101.725 28.5981 100.083 27.8824C98.9575 27.3796 97.9656 26.6204 97.188 25.666C96.4109 24.7117 95.8691 23.5889 95.6066 22.3878C95.0329 20.1775 95.0674 17.8543 95.7051 15.6616C96.6901 12.3255 99.3347 9.74011 103.792 9.66162C105.626 9.55653 107.453 9.97521 109.056 10.8684C111.45 12.301 112.651 14.4987 113.045 17.1922C113.133 17.805 113.181 18.4228 113.188 19.0417ZM109.312 19.0712C109.316 18.1109 109.185 17.1548 108.923 16.2306C108.663 15.3133 108.123 14.4991 107.379 13.9C106.634 13.3008 105.722 12.9461 104.767 12.8848C102.349 12.7474 100.541 13.7088 99.7484 15.7007C99.2938 16.789 99.0599 17.9561 99.0599 19.1349C99.0599 20.3137 99.2938 21.4808 99.7484 22.5691C100.077 23.4389 100.669 24.1858 101.442 24.7069C102.214 25.2279 103.13 25.4975 104.063 25.4785C104.966 25.5452 105.87 25.3437 106.659 24.8992C107.448 24.4548 108.087 23.7874 108.495 22.9814C109.17 21.804 109.293 20.4792 109.312 19.0712Z" fill="#848484"/>
  <path d="M42.8414 19.1646C42.8414 16.2504 42.8414 13.3411 42.8414 10.4269C42.8414 10.0492 42.9498 9.96582 43.3339 9.96582C47.6021 9.96582 51.8605 9.96582 56.1087 9.96582C56.4879 9.96582 56.6012 10.0639 56.5716 10.4564C56.5322 11.1869 56.5322 11.9191 56.5716 12.6495C56.5716 13.0911 56.4288 13.1401 56.0447 13.1401C53.0898 13.1401 50.1058 13.1401 47.1408 13.1401C46.6878 13.1401 46.5941 13.2677 46.6089 13.6896C46.6385 14.7346 46.6089 15.7794 46.6089 16.8244C46.6089 17.1433 46.7124 17.2219 47.0177 17.217C49.8199 17.217 52.6268 17.217 55.4291 17.217C55.8033 17.217 55.9215 17.3151 55.9215 17.7076C55.8871 18.4533 55.892 19.1795 55.9215 19.9448C55.9215 20.2931 55.8132 20.3616 55.4882 20.3616C52.7155 20.3616 49.9381 20.3616 47.1654 20.3616C46.7173 20.3616 46.6237 20.4892 46.6336 20.9111C46.6336 22.2505 46.6336 23.5996 46.6336 24.939C46.6336 25.2824 46.7222 25.356 47.0571 25.356C50.1891 25.356 53.3212 25.356 56.4583 25.356C56.8868 25.356 56.9508 25.4835 56.9508 25.8711C56.9164 26.6168 56.9164 27.343 56.9508 28.1133C56.9508 28.4763 56.8277 28.5107 56.5174 28.5107C52.1117 28.5107 47.7039 28.5107 43.2946 28.5107C42.9548 28.5107 42.876 28.432 42.876 28.0984C42.8464 25.0469 42.8414 22.1033 42.8414 19.1646Z" fill="#848484"/>
  <path d="M149.68 19.3463C149.68 22.2556 149.68 25.1698 149.68 28.084C149.68 28.4617 149.576 28.5501 149.187 28.5403C148.242 28.5174 147.296 28.5174 146.35 28.5403C145.986 28.5403 145.858 28.4616 145.858 28.0789C145.858 25.6897 145.858 23.3005 145.858 20.9113C145.858 20.5875 145.799 20.4844 145.444 20.4844C143.287 20.504 141.129 20.504 138.968 20.4844C138.618 20.4844 138.55 20.5875 138.554 20.9113C138.554 23.2907 138.554 25.6653 138.554 28.0399C138.554 28.4667 138.426 28.555 138.032 28.5305C137.116 28.5059 136.2 28.501 135.289 28.5305C134.915 28.5305 134.797 28.4419 134.797 28.0691C134.797 24.0511 134.797 20.0331 134.797 16.0151C134.797 14.1901 134.797 12.37 134.797 10.545C134.797 10.1574 134.905 10.0838 135.289 10.0936C136.23 10.123 137.175 10.123 138.121 10.0936C138.49 10.0936 138.554 10.2063 138.554 10.5399C138.554 12.6593 138.554 14.7836 138.554 16.9177C138.554 17.2562 138.618 17.3742 138.988 17.3693C141.135 17.3693 143.277 17.3693 145.425 17.3693C145.804 17.3693 145.858 17.2416 145.853 16.9129C145.853 14.7739 145.853 12.6398 145.853 10.5057C145.853 10.1917 145.922 10.0986 146.242 10.1035C147.227 10.1263 148.212 10.1263 149.197 10.1035C149.532 10.1035 149.62 10.177 149.616 10.5155C149.67 13.4591 149.68 16.4027 149.68 19.3463Z" fill="#848484"/>
  <path d="M27.4017 26.4697H35.9511C36.4879 26.4697 36.4978 26.4697 36.2713 26.9308C33.4346 32.6316 28.8841 36.1199 22.6148 37.3317C21.3165 37.5737 19.9937 37.6594 18.6749 37.5868C18.409 37.5868 18.3597 37.4837 18.3597 37.2433C18.3597 33.76 18.3597 30.2817 18.3597 26.8034C18.3597 26.4501 18.5272 26.4697 18.7685 26.4697H27.4017Z" fill="#848484"/>
  <path d="M78.4043 19.1697C78.4043 16.2261 78.4043 13.3168 78.4043 10.3879C78.4043 10.0592 78.4831 9.96598 78.8229 9.97088C81.4921 10.0003 84.1564 9.93159 86.8257 10.0248C88.0421 10.069 89.2487 10.1719 90.2731 10.898C90.8975 11.3153 91.421 11.8663 91.8052 12.5104C92.1893 13.1545 92.4247 13.8757 92.4941 14.6218C92.6714 16.1623 92.5532 17.6635 91.6422 18.9979C91.191 19.6702 90.5902 20.2294 89.886 20.6319C89.1822 21.0344 88.3942 21.2695 87.5841 21.3185C85.9461 21.4494 84.3017 21.4904 82.6593 21.4411C82.285 21.4411 82.1668 21.5049 82.1668 21.9317C82.1668 23.9579 82.1668 25.989 82.1668 28.0201C82.1668 28.339 82.0831 28.4175 81.7679 28.4125C80.7829 28.4125 79.798 28.4125 78.813 28.4125C78.4732 28.4125 78.3944 28.3341 78.3944 28.0005C78.4092 25.0471 78.4043 22.1084 78.4043 19.1697ZM82.1717 15.7108V17.9971C82.1717 18.1639 82.1422 18.3208 82.4081 18.3159C83.7856 18.3577 85.1641 18.3087 86.5351 18.1688C87.1364 18.0976 87.6905 17.8081 88.0914 17.3556C88.4917 16.903 88.7109 16.3192 88.707 15.7158C88.7355 15.1114 88.5321 14.5189 88.1377 14.0586C87.7437 13.5983 87.1882 13.3048 86.5844 13.2381C85.198 13.1048 83.8048 13.0624 82.4131 13.1107C82.157 13.1107 82.1668 13.2482 82.1668 13.4248C82.1717 14.2048 82.1717 14.9503 82.1717 15.7108Z" fill="#848484"/>
  <path d="M156.595 19.1939C156.532 20.4908 156.725 21.7877 157.161 23.0109C157.396 23.6142 157.769 24.1541 158.251 24.587C158.734 25.0198 159.312 25.3334 159.938 25.5025C160.565 25.6716 161.223 25.6914 161.859 25.5602C162.494 25.4291 163.09 25.1508 163.598 24.7477C164.346 24.0658 164.862 23.1689 165.076 22.1816C165.179 21.7842 165.307 21.745 165.671 21.8726C166.587 22.1915 167.518 22.4761 168.449 22.7508C168.754 22.8391 168.843 22.9421 168.745 23.2708C167.43 27.5783 164.278 29.1089 160.284 28.8047C156.29 28.5006 153.315 25.4394 152.847 21.2742C152.601 19.0665 152.68 16.8587 153.561 14.808C154.871 11.7319 157.255 10.0983 160.589 9.83827C162.207 9.66798 163.84 9.95528 165.302 10.6673C166.153 11.1013 166.901 11.7113 167.495 12.4568C168.09 13.2022 168.518 14.0659 168.749 14.9896C168.809 15.176 168.749 15.2201 168.587 15.2593C167.508 15.5144 166.43 15.7501 165.356 16.0297C165.149 16.0788 165.061 16.0296 165.012 15.8187C164.796 14.9772 164.294 14.2362 163.592 13.7211C162.89 13.2061 162.031 12.9486 161.16 12.9926C160.262 12.9788 159.382 13.2511 158.649 13.77C157.917 14.2889 157.37 15.0274 157.088 15.8776C156.726 16.9449 156.559 18.068 156.595 19.1939Z" fill="#848484"/>
  <path d="M27.2013 10.903C24.409 10.903 21.6215 10.903 18.8292 10.903C18.4647 10.903 18.3367 10.8244 18.3367 10.4467C18.3367 7.37223 18.3367 4.29461 18.3367 1.21363C18.3367 0.835869 18.4499 0.723031 18.8292 0.723031C22.2908 0.617605 25.7134 1.47479 28.7135 3.19832C31.7136 4.92185 34.1726 7.44367 35.8148 10.4812C35.9921 10.805 35.9773 10.8932 35.5735 10.8932C32.7762 10.8981 29.9888 10.903 27.2013 10.903Z" fill="#848484"/>
  <path d="M127.208 34.4173C127.208 33.8335 127.208 33.2496 127.208 32.6707C127.208 32.3126 127.38 32.342 127.616 32.3322C127.853 32.3224 128.001 32.3321 127.991 32.6559C127.991 33.5831 127.991 34.5104 127.991 35.4327C127.991 35.786 128.094 35.8498 128.414 35.84C129.084 35.84 129.084 35.8399 129.084 35.1481C129.084 34.3092 129.084 33.4753 129.084 32.6413C129.084 32.2978 129.256 32.342 129.468 32.3322C129.68 32.3224 129.852 32.3322 129.847 32.6511C129.847 33.593 129.847 34.535 129.847 35.472C129.847 35.7762 129.941 35.8449 130.227 35.84C130.99 35.84 130.99 35.8398 130.99 35.099C130.99 34.3582 130.99 33.4899 130.99 32.6853C130.99 32.3566 131.118 32.337 131.379 32.3272C131.64 32.3174 131.758 32.4009 131.753 32.7002C131.753 33.5931 131.753 34.4907 131.753 35.3836C131.753 35.5455 131.679 35.7663 131.98 35.7516C132.008 35.7556 132.035 35.7696 132.054 35.7909C132.105 36.2916 132.105 36.7962 132.054 37.2969C131.916 37.4196 131.743 37.3511 131.561 37.3511C131.379 37.3511 131.443 37.2136 131.438 37.1204C131.384 36.463 131.384 36.463 130.734 36.463C129.685 36.463 128.636 36.463 127.587 36.463C127.311 36.463 127.222 36.3895 127.237 36.1148C127.222 35.5506 127.208 34.9864 127.208 34.4173Z" fill="#848484"/>
  <path d="M86.3372 34.4025V32.6119C86.3372 32.4843 86.3076 32.3322 86.5243 32.3372C87.1498 32.3372 87.7851 32.3076 88.4007 32.3812C88.5922 32.3967 88.7759 32.4662 88.9296 32.5817C89.0832 32.6972 89.2005 32.854 89.2684 33.0335C89.3359 33.2131 89.3512 33.408 89.3118 33.5957C89.2724 33.7834 89.1798 33.9561 89.0458 34.0936C88.8833 34.28 88.8833 34.3389 89.0852 34.4713C89.2517 34.6046 89.3763 34.7827 89.4442 34.9844C89.5127 35.1862 89.5211 35.4029 89.4694 35.6094C89.4176 35.8159 89.3073 36.0033 89.1522 36.1494C88.9966 36.2954 88.8025 36.3942 88.5927 36.4337C87.9082 36.522 87.2187 36.4336 86.5342 36.4778C86.3224 36.4778 86.347 36.3355 86.347 36.203L86.3372 34.4025ZM87.7309 35.8351H87.8639C88.4745 35.8351 88.6912 35.6881 88.7011 35.2858C88.7109 34.8835 88.4647 34.6676 87.8737 34.6725C87.6225 34.6725 87.2384 34.5547 87.1596 34.7362C87.0828 35.0492 87.066 35.3736 87.1104 35.6928C87.1104 35.8154 87.1887 35.8303 87.2872 35.8303L87.7309 35.8351ZM87.7309 32.9653C87.0907 32.9653 87.0907 32.9653 87.0907 33.4559C87.0907 34.0397 87.0907 34.0396 87.6767 34.0396C87.8112 34.047 87.9456 34.047 88.0806 34.0396C88.2111 34.0396 88.3362 33.9879 88.4287 33.8959C88.5208 33.8039 88.573 33.6791 88.573 33.549C88.6124 33.1075 88.4253 32.9653 87.7457 32.9653H87.7309Z" fill="#848484"/>
  <path d="M156.443 34.3538V32.6072C156.443 32.4699 156.443 32.3326 156.635 32.3375C157.264 32.3088 157.894 32.322 158.521 32.3768C158.708 32.3979 158.886 32.47 159.035 32.5852C159.183 32.7003 159.297 32.8539 159.364 33.0293C159.43 33.2047 159.447 33.395 159.412 33.5793C159.378 33.7637 159.292 33.935 159.166 34.0743C158.994 34.2803 158.994 34.3391 159.211 34.4863C159.364 34.6207 159.477 34.7942 159.539 34.9882C159.601 35.182 159.608 35.389 159.561 35.5868C159.513 35.7846 159.412 35.9657 159.269 36.1107C159.126 36.2556 158.946 36.3588 158.748 36.4094C158.045 36.4715 157.34 36.4897 156.635 36.4635C156.384 36.4635 156.448 36.282 156.443 36.1495V34.3538ZM157.777 35.8256C157.965 35.8256 158.117 35.8256 158.27 35.8256C158.367 35.8243 158.462 35.7984 158.546 35.7499C158.63 35.7014 158.7 35.6322 158.75 35.5489C158.799 35.4657 158.826 35.3711 158.829 35.2744C158.831 35.1777 158.808 35.0819 158.762 34.9965C158.649 34.7267 157.467 34.5059 157.255 34.7021C157.255 34.7021 157.255 34.7268 157.255 34.7366C157.211 35.0721 157.211 35.4118 157.255 35.7473C157.3 35.9435 157.62 35.7914 157.777 35.8307V35.8256ZM157.846 32.9606C157.211 32.9606 157.211 32.9606 157.211 33.4512C157.211 34.0301 157.211 34.0302 157.802 34.0302C157.937 34.04 158.071 34.04 158.206 34.0302C158.275 34.0305 158.343 34.0164 158.407 33.9888C158.47 33.9611 158.527 33.9203 158.573 33.8694C158.62 33.8186 158.655 33.7587 158.676 33.6934C158.698 33.6281 158.705 33.5589 158.698 33.4905C158.689 33.0833 158.501 32.9656 157.866 32.9656L157.846 32.9606Z" fill="#848484"/>
  <path d="M120.097 34.4025C120.097 33.8039 120.097 33.2104 120.097 32.6118C120.097 32.396 120.161 32.3323 120.378 32.3323C121.127 32.3323 121.855 32.3323 122.619 32.3323C122.88 32.3323 122.909 32.4402 122.909 32.6511C122.909 32.8621 122.909 32.9846 122.624 32.9748C122.131 32.9502 121.668 32.9748 121.191 32.9748C120.944 32.9748 120.831 33.0338 120.861 33.2939C120.875 33.4423 120.875 33.5917 120.861 33.7401C120.861 33.9167 120.92 33.9756 121.092 33.9658C121.393 33.9658 121.688 33.9658 121.988 33.9658C122.158 33.9573 122.327 33.9854 122.484 34.0477C122.642 34.1101 122.784 34.2053 122.901 34.3273C123.019 34.4492 123.108 34.5947 123.164 34.7541C123.22 34.9136 123.24 35.0831 123.225 35.2512C123.237 35.4159 123.214 35.5815 123.156 35.7363C123.098 35.8911 123.008 36.0318 122.89 36.1483C122.773 36.2649 122.631 36.3547 122.475 36.4116C122.32 36.4685 122.154 36.491 121.988 36.4777C121.466 36.4777 120.939 36.4777 120.417 36.4777C120.166 36.4777 120.073 36.4092 120.087 36.1541C120.102 35.899 120.087 35.5554 120.087 35.261L120.097 34.4025ZM121.496 35.835H121.722C122.215 35.835 122.461 35.6193 122.456 35.1973C122.451 34.7754 122.205 34.5987 121.732 34.579C121.525 34.579 121.314 34.579 121.107 34.579C120.9 34.579 120.831 34.6136 120.87 34.7951C120.944 35.1385 120.688 35.521 121.008 35.8252C121.038 35.8546 121.122 35.8252 121.181 35.8252L121.496 35.835Z" fill="#848484"/>
  <path d="M163.411 34.4861C163.411 33.1909 163.903 32.4697 164.854 32.2784C165.274 32.1806 165.715 32.2426 166.091 32.4523C166.468 32.662 166.751 33.0041 166.888 33.4117C167.108 34.0219 167.12 34.6876 166.922 35.3054C166.818 35.6997 166.574 36.0431 166.236 36.2722C165.897 36.5013 165.487 36.6005 165.08 36.5515C164.673 36.5286 164.287 36.3629 163.99 36.0837C163.694 35.8044 163.506 35.4297 163.46 35.0258C163.426 34.81 163.421 34.5842 163.411 34.4861ZM166.253 34.3929C166.273 34.1197 166.234 33.8452 166.139 33.5883C166.073 33.4039 165.95 33.245 165.789 33.1334C165.627 33.0217 165.435 32.963 165.238 32.9654C165.041 32.9562 164.847 33.011 164.684 33.1216C164.521 33.2323 164.4 33.3928 164.337 33.5787C164.227 33.8415 164.17 34.1232 164.17 34.4078C164.17 34.6924 164.227 34.9741 164.337 35.2369C164.405 35.4215 164.532 35.579 164.698 35.686C164.864 35.793 165.06 35.8438 165.258 35.8305C165.454 35.8273 165.644 35.7618 165.801 35.6436C165.958 35.5254 166.073 35.3607 166.129 35.1731C166.221 34.9238 166.257 34.6577 166.238 34.3929H166.253Z" fill="#848484"/>
  <path d="M78.8165 34.4863C78.8091 34.155 78.8505 33.8243 78.9396 33.5051C79.0322 33.1405 79.2465 32.8182 79.5469 32.5909C79.8478 32.3636 80.2171 32.2449 80.5944 32.2541C80.9795 32.2337 81.3597 32.3437 81.6739 32.5665C81.9876 32.7893 82.2166 33.1115 82.323 33.4806C82.5027 34.0708 82.5027 34.7008 82.323 35.2909C82.2028 35.6695 81.958 35.9968 81.6286 36.2204C81.2996 36.4439 80.9041 36.5506 80.5062 36.5234C80.1088 36.4963 79.7315 36.3369 79.4361 36.0707C79.1401 35.8044 78.9431 35.4468 78.8756 35.0554C78.8461 34.8669 78.8259 34.6769 78.8165 34.4863ZM81.6581 34.3785C81.6842 34.0938 81.6384 33.807 81.5252 33.5444C81.4562 33.3768 81.34 33.233 81.1908 33.1301C81.0411 33.0274 80.8647 32.9702 80.683 32.9656C80.4944 32.9473 80.3053 32.9892 80.1423 33.0853C79.9793 33.1815 79.8512 33.3268 79.7769 33.5003C79.6468 33.7793 79.5794 34.0831 79.5794 34.3907C79.5794 34.6983 79.6468 35.0021 79.7769 35.2811C79.8492 35.456 79.9753 35.6035 80.1373 35.7022C80.2994 35.801 80.489 35.846 80.6781 35.8306C80.8746 35.8248 81.0642 35.7578 81.2208 35.639C81.3769 35.5202 81.4922 35.3556 81.5498 35.1682C81.6443 34.9163 81.6813 34.6465 81.6581 34.3785Z" fill="#848484"/>
  <path d="M93.3949 34.4814C93.387 34.1501 93.4288 33.8194 93.518 33.5002C93.614 33.121 93.8406 32.7876 94.1582 32.558C94.4759 32.3285 94.8644 32.2173 95.2564 32.2442C95.6411 32.2433 96.0154 32.3716 96.3182 32.6083C96.6211 32.8451 96.8348 33.1766 96.926 33.5493C97.0678 34.055 97.0796 34.5879 96.9604 35.0994C96.8802 35.5124 96.6556 35.8838 96.3261 36.1472C95.9971 36.4106 95.5844 36.5491 95.1624 36.5379C94.7403 36.5267 94.336 36.3666 94.0213 36.0861C93.7066 35.8056 93.5017 35.4229 93.4441 35.0062C93.4096 34.81 93.4047 34.5991 93.3949 34.4814ZM96.2365 34.4224C96.2606 34.1395 96.2222 33.8546 96.1232 33.5883C96.0597 33.4112 95.9435 33.2574 95.7908 33.1471C95.6376 33.0367 95.4549 32.9751 95.2663 32.9703C95.0703 32.9492 94.8728 32.9937 94.7054 33.0967C94.5374 33.1998 94.4094 33.3556 94.3404 33.5395C94.2222 33.807 94.1612 34.0959 94.1612 34.3882C94.1612 34.6804 94.2222 34.9694 94.3404 35.2369C94.4079 35.4212 94.534 35.5785 94.699 35.6856C94.8639 35.7926 95.0594 35.8435 95.2564 35.8305C95.4529 35.8273 95.643 35.7618 95.8001 35.6436C95.9567 35.5255 96.0715 35.3608 96.1281 35.1732C96.2202 34.9343 96.2577 34.6776 96.2365 34.4224Z" fill="#848484"/>
  <path d="M112.473 34.4812C112.465 34.1499 112.506 33.8192 112.596 33.5C112.692 33.1199 112.919 32.7858 113.238 32.5561C113.557 32.3265 113.947 32.216 114.339 32.244C114.723 32.2442 115.096 32.3729 115.398 32.6096C115.7 32.8462 115.913 33.1772 116.004 33.5491C116.146 34.0548 116.157 34.5877 116.038 35.0992C115.958 35.5123 115.733 35.8836 115.404 36.147C115.075 36.4104 114.663 36.5489 114.24 36.5377C113.818 36.5265 113.414 36.3664 113.099 36.0859C112.784 35.8055 112.58 35.4227 112.522 35.006C112.487 34.8098 112.482 34.594 112.473 34.4812ZM115.314 34.4076C115.342 34.1185 115.298 33.827 115.186 33.5589C115.119 33.3833 115 33.2321 114.843 33.126C114.688 33.0199 114.503 32.9639 114.315 32.9653C114.126 32.9528 113.938 33.0002 113.778 33.1006C113.618 33.2011 113.494 33.3494 113.423 33.5244C113.299 33.7981 113.235 34.0949 113.235 34.3952C113.235 34.6955 113.299 34.9925 113.423 35.2662C113.496 35.4494 113.626 35.6038 113.795 35.7058C113.964 35.8077 114.162 35.8515 114.359 35.8303C114.548 35.8201 114.73 35.7525 114.879 35.6368C115.029 35.521 115.139 35.3626 115.196 35.1826C115.294 34.9364 115.334 34.6716 115.314 34.4076Z" fill="#848484"/>
  <path d="M135.935 34.383C135.935 33.8041 135.935 33.2204 135.935 32.6415C135.935 32.4109 135.989 32.3276 136.23 32.3325C136.979 32.3325 137.708 32.3325 138.476 32.3325C138.772 32.3325 138.727 32.4991 138.732 32.6758C138.737 32.8524 138.732 32.98 138.476 32.9702C138.013 32.9702 137.545 32.9702 137.082 32.9702C136.802 32.9702 136.698 33.0241 136.703 33.3283C136.703 34.0495 136.703 34.0496 137.432 34.0496C137.703 34.0496 137.974 34.0496 138.24 34.0496C138.506 34.0496 138.609 34.0937 138.604 34.3881C138.599 34.6825 138.476 34.6922 138.254 34.6873C137.836 34.6873 137.412 34.6873 136.994 34.6873C136.792 34.6873 136.718 34.7266 136.708 34.9522C136.669 35.8549 136.659 35.8549 137.565 35.8549C137.88 35.8549 138.195 35.8549 138.511 35.8549C138.826 35.8549 138.791 36.0021 138.806 36.2082C138.821 36.4142 138.713 36.4976 138.491 36.4976C137.742 36.4976 137.013 36.4976 136.245 36.4976C135.974 36.4976 135.925 36.3946 135.935 36.1591C135.945 35.5507 135.935 34.9669 135.935 34.383Z" fill="#848484"/>
  <path d="M100.929 34.3783C100.929 33.7994 100.929 33.2154 100.929 32.6365C100.929 32.401 101.003 32.3276 101.235 32.3325C101.97 32.3325 102.704 32.3325 103.436 32.3325C103.677 32.3325 103.737 32.4059 103.737 32.6365C103.737 32.8671 103.702 32.9897 103.421 32.975C102.958 32.9505 102.495 32.975 102.033 32.975C101.781 32.975 101.703 33.0389 101.703 33.294C101.703 34.0545 101.703 34.0544 102.436 34.0544C102.692 34.0544 102.929 34.0544 103.2 34.0544C103.471 34.0544 103.608 34.0544 103.604 34.3929C103.599 34.7314 103.402 34.6825 103.2 34.6825C102.998 34.6825 102.752 34.6825 102.525 34.6825C101.663 34.6825 101.57 34.8051 101.703 35.6637C101.737 35.8796 101.861 35.8403 101.989 35.8403C102.481 35.8403 103.003 35.8403 103.515 35.8403C103.771 35.8403 103.81 35.9384 103.801 36.1543C103.791 36.3702 103.801 36.4928 103.53 36.4829C102.765 36.4633 102.002 36.4633 101.24 36.4829C100.959 36.4829 100.924 36.37 100.929 36.1394C100.939 35.5409 100.929 34.9621 100.929 34.3783Z" fill="#848484"/>
  <path d="M68.2937 36.4341C67.5008 36.4978 67.4811 36.5028 67.2693 35.8306C67.1807 35.5608 67.0625 35.4333 66.7768 35.4725C66.599 35.4995 66.4178 35.4995 66.24 35.4725C65.8116 35.4039 65.6047 35.5755 65.5013 35.9974C65.3831 36.488 65.3486 36.4879 64.5607 36.4389L65.7476 33.0785C65.7973 32.9706 65.8382 32.859 65.8707 32.7447C65.9248 32.4308 66.0775 32.3278 66.4124 32.3229C66.7473 32.318 66.8704 32.4602 66.9689 32.7447C67.3924 33.9663 67.8406 35.1781 68.2937 36.4341ZM66.3976 33.3187L65.9051 34.8149H66.8901L66.3976 33.3187Z" fill="#848484"/>
  <path d="M71.7593 36.4436C72.1533 35.7861 72.5128 35.1678 72.892 34.5693C72.9506 34.4943 72.9826 34.4021 72.9826 34.307C72.9826 34.2119 72.9506 34.1194 72.892 34.0445C72.5571 33.4999 72.237 32.9504 71.907 32.4009C72.9905 32.0133 73.0299 33.0338 73.4977 33.5244C73.6258 33.3085 73.7489 33.1123 73.872 32.9111C74.2512 32.2832 74.2512 32.2833 75.0687 32.3765C74.7634 32.9014 74.4876 33.4263 74.1527 33.912C74.0587 34.0241 74.007 34.1656 74.007 34.3118C74.007 34.458 74.0587 34.5995 74.1527 34.7116C74.5073 35.2562 74.8274 35.8254 75.1672 36.3896C74.4088 36.5663 74.3546 36.5417 73.9804 35.899L73.4879 35.0503C73.3204 35.33 73.1628 35.5751 72.9954 35.8253C72.6654 36.4876 72.6654 36.4877 71.7593 36.4436Z" fill="#848484"/>
  <path d="M58.078 34.3633V32.6167C58.078 32.4891 58.0485 32.3322 58.2603 32.3371C58.8729 32.3109 59.487 32.3289 60.0972 32.3911C60.3499 32.4405 60.5764 32.5797 60.734 32.7827C60.8916 32.9857 60.9699 33.2387 60.9541 33.4949C60.9837 34.2112 60.703 34.7019 60.1809 34.8491C59.9357 34.9169 59.6821 34.9482 59.4274 34.9423C58.8463 34.9423 58.8463 34.9422 58.8463 35.5359C58.8463 35.7615 58.8463 35.9824 58.8463 36.2081C58.8463 36.5417 58.6296 36.4582 58.4523 36.4582C58.275 36.4582 58.0583 36.5318 58.0682 36.1982C58.0928 35.5899 58.078 34.9765 58.078 34.3633ZM58.8414 33.6372C58.93 33.8776 58.5952 34.3732 59.2797 34.3192C59.9642 34.2653 60.176 34.1131 60.1809 33.6372C60.1859 33.1613 59.9248 33.0094 59.2895 32.9555C58.6542 32.9015 58.8759 33.3379 58.8414 33.6372Z" fill="#848484"/>
  <path d="M44.2893 34.4222C44.2545 33.8489 44.4295 33.2825 44.7818 32.8278C44.9595 32.6029 45.1961 32.4312 45.4654 32.3317C45.7348 32.2321 46.0265 32.2086 46.3085 32.2636C46.5716 32.2924 46.8206 32.3965 47.0253 32.5638C47.2299 32.7311 47.3812 32.9541 47.4609 33.2056C47.5003 33.3037 47.6628 33.4754 47.4314 33.5244C47.1999 33.5735 46.9389 33.8237 46.7764 33.5244C46.7132 33.339 46.5843 33.1829 46.4139 33.0853C46.2434 32.9878 46.0431 32.9555 45.8505 32.9945C45.65 33.0382 45.4698 33.1474 45.3386 33.3047C45.2074 33.4621 45.1328 33.6585 45.1265 33.8629C45.0441 34.305 45.066 34.7601 45.1905 35.1924C45.2259 35.3702 45.3206 35.531 45.4591 35.6485C45.5977 35.766 45.7721 35.8337 45.9539 35.8402C46.1289 35.8599 46.3049 35.814 46.4478 35.7115C46.5908 35.609 46.6903 35.4573 46.7271 35.2858C46.8403 34.8198 47.0768 35.065 47.3082 35.1141C47.6481 35.1926 47.5249 35.3986 47.4511 35.6047C47.3512 35.8593 47.1855 36.0831 46.9708 36.2534C46.756 36.4237 46.4999 36.5343 46.2283 36.5741C45.9568 36.614 45.6796 36.5816 45.4247 36.4802C45.1697 36.3789 44.9462 36.2122 44.7769 35.9971C44.4187 35.5533 44.2442 34.9899 44.2893 34.4222Z" fill="#848484"/>
  <path d="M142.652 34.4081C142.615 33.8361 142.791 33.2703 143.145 32.8185C143.325 32.595 143.563 32.4253 143.833 32.3283C144.103 32.2314 144.395 32.2107 144.677 32.2689C144.94 32.299 145.188 32.4052 145.391 32.5744C145.594 32.7435 145.743 32.9682 145.819 33.2207C145.858 33.3237 146.006 33.4907 145.765 33.5299C145.524 33.5692 145.272 33.8292 145.139 33.5299C145.076 33.337 144.944 33.1741 144.768 33.0719C144.591 32.9697 144.384 32.9352 144.184 32.9754C143.77 33.049 143.539 33.4073 143.46 33.9911C143.406 34.3761 143.43 34.768 143.529 35.144C143.563 35.3228 143.654 35.4856 143.789 35.6078C143.924 35.73 144.096 35.8049 144.278 35.821C144.46 35.8459 144.644 35.8009 144.794 35.6952C144.944 35.5895 145.048 35.4311 145.085 35.2518C145.213 34.7907 145.455 35.0557 145.676 35.1047C146.031 35.1832 145.868 35.4089 145.799 35.5953C145.697 35.8444 145.531 36.0626 145.318 36.2289C145.106 36.3953 144.854 36.5042 144.586 36.5447C144.319 36.5852 144.046 36.556 143.793 36.4601C143.541 36.3643 143.317 36.2049 143.145 35.9975C142.784 35.549 142.609 34.981 142.652 34.4081Z" fill="#848484"/>
  <path d="M151.114 32.3572C151.503 32.3572 151.892 32.3572 152.276 32.3572C152.542 32.3572 152.601 32.4454 152.596 32.6858C152.591 32.9262 152.547 32.995 152.301 32.9999C151.478 32.9999 151.478 33.0292 151.478 33.873C151.478 34.6188 151.478 35.345 151.478 36.1054C151.478 36.3654 151.478 36.5174 151.133 36.4978C150.789 36.4782 150.705 36.4734 150.715 36.1251C150.744 35.2028 150.715 34.2753 150.715 33.353C150.715 33.0635 150.636 32.9459 150.341 32.9901C150.193 32.9901 150.04 32.9901 149.892 32.9901C149.622 33.0244 149.577 32.8919 149.577 32.6564C149.577 32.4209 149.646 32.3426 149.883 32.3524C150.306 32.3573 150.71 32.3572 151.114 32.3572Z" fill="#848484"/>
  <path d="M53.1159 34.712C53.1159 35.1781 53.1159 35.6393 53.1159 36.1005C53.1159 36.3997 53.0321 36.4832 52.7416 36.4684C52.451 36.4537 52.3377 36.4684 52.3476 36.1201C52.3476 35.2076 52.3476 34.2952 52.3476 33.3876C52.3476 33.0638 52.2934 32.8969 51.9388 32.9607C51.8059 32.9852 51.668 32.9607 51.535 32.9607C51.2691 32.9901 51.21 32.8773 51.21 32.632C51.21 32.3867 51.2691 32.3181 51.5104 32.323C52.323 32.323 53.1306 32.323 53.9432 32.323C54.1747 32.323 54.219 32.416 54.2042 32.6172C54.1895 32.8183 54.2535 32.9706 53.9531 32.9657C53.6527 32.9608 53.2833 32.8234 53.1454 33.0294C53.0075 33.2355 53.0962 33.6034 53.0912 33.8978L53.1159 34.712Z" fill="#848484"/>
</svg>