<svg xmlns="http://www.w3.org/2000/svg" width="43" height="43" viewBox="0 0 43 43" fill="none">
  <path d="M4 38.873h4.653c2.081 0 4.185.21 6.21.616 3.583.717 7.355.803 10.975.234 1.784-.28 3.54-.71 5.127-1.454 1.434-.672 3.19-1.62 4.37-2.681 1.178-1.06 2.405-2.795 3.276-4.15.746-1.163.385-2.59-.796-3.456-1.312-.962-3.258-.962-4.57 0l-3.72 2.73c-1.443 1.059-3.018 2.033-4.894 2.323q-.338.053-.71.095m0 0-.225.024m.226-.024c.3-.062.598-.242.878-.48 1.324-1.122 1.408-3.014.259-4.268a3.9 3.9 0 0 0-.926-.735C18.374 24.312 9.413 26.853 4 30.583m19.922 2.548q-.112.024-.226.024m0 0a19.7 19.7 0 0 1-3.737.007" stroke="#252525" stroke-width="2" stroke-linecap="round"/>
  <path d="M20.5 6.929c-2 1-4 2.5-4.5 4.5a4.5 4.5 0 1 1 4.5-4.5Z" stroke="#252525" stroke-width="2"/>
  <circle cx="21" cy="11.929" r="4.5" stroke="#51A1FF" stroke-width="2"/>
</svg>
