<svg xmlns="http://www.w3.org/2000/svg" width="181" height="52" viewBox="0 0 181 52" fill="none">
  <path d="M33.2269 28.3893V20.2988H30.5V32.7985H33.0421L39.0091 24.5843V32.7985H41.6599V20.2988H39.1343L33.2269 28.3893Z" fill="#848484"/>
  <path d="M43.6789 32.7985V20.2988H46.4217V25.2533H51.9742V20.2988H54.717V32.7985H51.9742V27.7285H46.4217V32.7985H43.6789Z" fill="#848484"/>
  <path d="M56.6905 32.7985V20.2988H65.153V22.778H59.4333V32.7985H56.6905Z" fill="#848484"/>
  <path d="M90.825 21.9252L89.1693 23.5809C88.846 23.2464 87.7912 22.5774 86.1589 22.5774C84.1185 22.5774 82.4796 23.9823 82.4796 26.5243C82.4796 29.0664 84.1185 30.4379 86.1589 30.4379C87.7912 30.4379 88.846 29.7912 89.1693 29.4679L90.825 31.1069C90.3512 31.7312 88.7546 32.9799 86.1589 32.9799C82.9144 32.9799 79.5361 30.7724 79.5361 26.5243C79.5361 22.2762 83.0482 20.0018 86.1589 20.0018C88.6475 20.0018 90.3066 21.284 90.825 21.9252Z" fill="#848484"/>
  <path d="M103.151 20.2695V22.7781H107.198V32.7459H109.908V22.7781H113.921V20.2695H103.151Z" fill="#848484"/>
  <path d="M141.684 32.7459H138.573L142.955 26.2902L138.573 20.2695H141.918L144.561 24.0826L147.237 20.2695H150.414L146.166 26.2902L150.648 32.7459H147.404L144.561 28.732L141.684 32.7459Z" fill="#848484"/>
  <path d="M102.311 21.9252L100.655 23.5809C100.332 23.2464 99.2774 22.5774 97.6451 22.5774C95.6047 22.5774 93.9657 23.9823 93.9657 26.5243C93.9657 29.0664 95.6047 30.4379 97.6451 30.4379C99.2774 30.4379 100.332 29.7912 100.655 29.4679L102.311 31.1069C101.837 31.7312 100.241 32.9799 97.6451 32.9799C94.4005 32.9799 91.0222 30.7724 91.0222 26.5243C91.0222 22.2762 94.5343 20.0018 97.6451 20.0018C100.134 20.0018 101.793 21.284 102.311 21.9252Z" fill="#848484"/>
  <path fill-rule="evenodd" clip-rule="evenodd" d="M71.8428 20.0018C74.0393 20.0846 78.4322 21.505 78.4322 26.5243C78.4322 31.5436 74.0393 32.9195 71.8428 32.9799C69.6129 33.058 65.153 31.8761 65.153 26.5243C65.153 21.1725 69.6129 19.946 71.8428 20.0018ZM75.5222 26.5243C75.5222 23.3667 73.0693 22.5774 71.8428 22.5774C70.5718 22.5774 68.0296 23.3668 68.0296 26.5243C68.0296 29.6818 70.5718 30.449 71.8428 30.4379C73.0693 30.4491 75.5222 29.682 75.5222 26.5243Z" fill="#848484"/>
  <path fill-rule="evenodd" clip-rule="evenodd" d="M115.627 32.7459H118.404V29.0665H121.08C122.752 29.0888 126.097 28.2704 126.097 24.8185C126.097 20.5036 122.25 20.2695 121.08 20.2695H115.627V32.7459ZM118.404 26.5243V22.7781H120.243C121.749 22.7781 123.22 22.9788 123.22 24.8185C123.22 26.2902 121.236 26.5689 120.243 26.5243H118.404Z" fill="#848484"/>
  <path fill-rule="evenodd" clip-rule="evenodd" d="M125.093 32.7459H127.769L128.973 29.8693H134.225L135.429 32.7459H138.239L132.954 20.2695H130.412L125.093 32.7459ZM129.943 27.4275L131.649 23.5809L133.288 27.4275H129.943Z" fill="#848484"/>
</svg>