<svg xmlns="http://www.w3.org/2000/svg" width="57" height="24" viewBox="0 0 57 24" fill="none">
  <g clip-path="url(#a)" fill="#fff">
    <path d="m7.39 12.489-1.75 5.205h3.51zm3.397 10.308-.679-1.992H4.695l-.678 1.992H0L5.168 8.96h4.446L14.8 22.797zm11.29.243a8.2 8.2 0 0 1-2.944-.517 7.1 7.1 0 0 1-2.36-1.461 6.7 6.7 0 0 1-1.561-2.263 7.76 7.76 0 0 1 0-5.827 6.7 6.7 0 0 1 1.561-2.261 7.1 7.1 0 0 1 2.36-1.462 8.2 8.2 0 0 1 2.944-.526 7 7 0 0 1 2.199.323 6.3 6.3 0 0 1 1.702.859c.468.334.885.736 1.236 1.193q.489.633.852 1.347l-3.045 1.447a3 3 0 0 0-.463-.778 3.6 3.6 0 0 0-.69-.641 3.2 3.2 0 0 0-.844-.443 3 3 0 0 0-.947-.148 3.7 3.7 0 0 0-2.154.65 3.75 3.75 0 0 0-1.39 1.778 4.58 4.58 0 0 0 0 3.152c.177.471.446.901.79 1.266a3.9 3.9 0 0 0 1.219.85 3.8 3.8 0 0 0 1.542.311 2.9 2.9 0 0 0 .947-.158 3.1 3.1 0 0 0 .845-.434q.386-.275.689-.641c.193-.234.35-.497.463-.779l3.035 1.45a7.5 7.5 0 0 1-.844 1.329c-.355.457-.774.86-1.244 1.195a6.4 6.4 0 0 1-1.698.86 6.8 6.8 0 0 1-2.199.331m10.745-.284V12.035h-3.85V8.923h11.22v3.112h-3.83v10.723zm21.11-15.924h3.068a7.02 7.02 0 0 0-1.959-3.902 6.93 6.93 0 0 0-3.874-1.97v3.086a3.94 3.94 0 0 1 1.749 1.024 4 4 0 0 1 1.016 1.762m-4.839-2.786V.959a6.93 6.93 0 0 0-3.873 1.973 7 7 0 0 0-1.955 3.901h3.063a4 4 0 0 1 1.017-1.76 3.95 3.95 0 0 1 1.748-1.025m-2.765 4.875h-3.063a7 7 0 0 0 1.955 3.903 6.92 6.92 0 0 0 3.873 1.97V11.71a3.95 3.95 0 0 1-1.748-1.025 4 4 0 0 1-1.017-1.762m4.839 2.787v3.086a6.93 6.93 0 0 0 3.874-1.97 7.02 7.02 0 0 0 1.959-3.903h-3.068a4 4 0 0 1-1.015 1.764 3.94 3.94 0 0 1-1.75 1.023"/>
  </g>
  <defs>
    <clipPath id="a">
      <path fill="#fff" d="M0 .96h57v22.081H0z"/>
    </clipPath>
  </defs>
</svg>
