<svg width="86" height="30" viewBox="0 0 86 30" fill="none" xmlns="http://www.w3.org/2000/svg">
  <path d="M53.273 29.212V15.085h-5.1v-4.097h14.9v4.097h-5.1v14.127zM32.584 27.58v-4.757c.745.687 1.776 1.26 3.095 1.747 1.318.488 2.55.717 3.725.717 1.834 0 2.78-.459 2.78-1.433 0-.544-.287-.774-.688-1.06-.201-.172-.86-.373-1.175-.459l-1.634-.487-1.318-.401-1.203-.458a8 8 0 0 1-1.204-.573c-.516-.402-1.375-1.003-1.748-1.663a5.9 5.9 0 0 1-.659-2.665c0-3.495 2.78-5.444 7.107-5.444 2.206 0 4.24.487 6.132 1.49v4.47a11.5 11.5 0 0 0-2.866-1.232c-1.117-.344-2.177-.516-3.209-.516-1.576 0-2.378.402-2.378 1.204 0 .344.2.602.745.83l.83.287c.545.172 1.749.488 2.494.717 1.748.573 3.094 1.29 4.097 2.149.975.86 1.49 2.063 1.49 3.64 0 1.776-.687 3.18-2.063 4.24-1.375 1.06-3.152 1.576-5.33 1.576-2.808.029-5.129-.602-7.02-1.92M.633 10.988v18.224h4.7v-6.676h5.072v-4.098H5.333v-3.353h8.31v-4.097zM21.78 15.63l-2.32 6.848h4.642zm4.5 13.582-.889-2.636H18.2l-.888 2.636h-4.728l6.848-18.224h4.642l6.878 18.224z" fill="#fff"/>
  <path d="M81.298 8.237h4.069A9.24 9.24 0 0 0 77.63.5v4.069a5.26 5.26 0 0 1 3.668 3.668m-6.419-3.668V.5a9.24 9.24 0 0 0-7.737 7.737h4.069a5.26 5.26 0 0 1 3.668-3.668m-3.668 6.419h-4.069a9.24 9.24 0 0 0 7.737 7.737v-4.07a5.26 5.26 0 0 1-3.668-3.667m6.419 3.668v4.069a9.24 9.24 0 0 0 7.737-7.737h-4.07a5.26 5.26 0 0 1-3.667 3.668" fill="#1774E2"/>
</svg>
