<svg xmlns="http://www.w3.org/2000/svg" width="14" height="16" viewBox="0 0 14 16" fill="none">
<path d="M1.15891 4.19808C1.15604 4.12437 1.13935 4.05217 1.10981 3.9856C1.08027 3.91903 1.03845 3.85939 0.986734 3.81009C0.935021 3.76079 0.874428 3.72279 0.808415 3.69826C0.742403 3.67374 0.672263 3.66317 0.602002 3.66715C0.531741 3.67114 0.462733 3.6896 0.398919 3.72149C0.335105 3.75338 0.277735 3.79807 0.230084 3.85301C0.182434 3.90795 0.145435 3.97206 0.121201 4.04168C0.0969677 4.1113 0.0859734 4.18507 0.0888462 4.25878L1.15891 4.19808ZM1.88445 1.32575C1.78934 1.43451 1.73802 1.57744 1.74145 1.72402C1.74487 1.8706 1.80278 2.00921 1.90279 2.11025C2.00281 2.2113 2.13702 2.26677 2.27675 2.26483C2.41649 2.26288 2.55068 2.20368 2.65068 2.09985L1.88445 1.32575ZM5.97183 13.8552C6.03086 13.8955 6.09706 13.9229 6.16662 13.936C6.23617 13.9491 6.30769 13.9475 6.37702 13.9314C6.44636 13.9153 6.51214 13.8849 6.57056 13.8421C6.62897 13.7992 6.67886 13.7447 6.71732 13.6818C6.75579 13.6188 6.78208 13.5487 6.79466 13.4753C6.80724 13.402 6.80587 13.327 6.79062 13.2546C6.77538 13.1822 6.74656 13.1139 6.70583 13.0536C6.66511 12.9934 6.61329 12.9423 6.55339 12.9035L5.97183 13.8552ZM9.14531 14.0395C9.00664 14.009 8.86138 14.0378 8.74148 14.1194C8.62158 14.2011 8.53687 14.3289 8.50598 14.4749C8.47509 14.6209 8.50055 14.773 8.57677 14.8978C8.65298 15.0226 8.7737 15.1099 8.91237 15.1404L9.14531 14.0395ZM9.56745 10.6569L9.89675 10.2972L9.12981 9.5231L8.80051 9.88279L9.56745 10.6569ZM10.9687 10.1458L12.3217 10.9701L12.8686 9.99595L11.5148 9.17164L10.9687 10.1458ZM12.5637 12.6787L11.5353 13.799L12.3023 14.5738L13.3299 13.4528L12.5637 12.6787ZM4.36265 10.9679C1.6342 7.90971 1.20255 5.32963 1.15891 4.19808L0.0888462 4.25878C0.142857 5.64511 0.66696 8.48072 3.57703 11.742L4.36265 10.9679ZM5.40719 5.99432L5.61418 5.76801L4.84796 4.99391L4.64026 5.22022L5.40719 5.99432ZM5.81081 2.95038L4.92743 1.61426L4.04486 2.26321L4.92754 3.59934L5.81081 2.95038ZM5.02302 5.6069C4.89617 5.47692 4.7681 5.34827 4.63882 5.22097L4.63737 5.22247L4.6352 5.22472C4.62236 5.23848 4.61026 5.25299 4.59897 5.26818C4.52778 5.36541 4.47106 5.47332 4.43078 5.58816C4.35824 5.79424 4.31771 6.06701 4.36056 6.40722C4.44498 7.07566 4.8513 7.97415 5.9262 9.17988L6.71254 8.40504C5.70732 7.27874 5.46474 6.58557 5.42191 6.24386C5.40114 6.079 5.42506 5.99282 5.43468 5.96509L5.44057 5.95086C5.43461 5.96072 5.4278 5.97 5.42024 5.97858C5.41599 5.98367 5.41164 5.98942 5.40719 5.99432L5.02302 5.6069ZM5.92621 9.17914C6.9983 10.3811 7.81327 10.8532 8.43795 10.9604C8.7592 11.0151 9.0203 10.9709 9.21834 10.8892C9.32831 10.8443 9.43084 10.781 9.52192 10.7019L9.54722 10.6764L9.55734 10.6659C9.55905 10.6644 9.56073 10.6629 9.5624 10.6614L9.56457 10.6591L9.5653 10.6576C9.5653 10.6576 9.56674 10.6569 9.18327 10.2695C8.7998 9.88279 8.80052 9.88204 8.80053 9.88129L8.80197 9.88054L8.80342 9.8783L8.80775 9.87455C8.81868 9.86361 8.83001 9.85311 8.8417 9.84308C8.84818 9.83858 8.84745 9.84008 8.83812 9.84383C8.82377 9.84982 8.75922 9.8738 8.62389 9.85057C8.33755 9.80111 7.72128 9.53583 6.71254 8.40504L5.92621 9.17914ZM4.92743 1.61426C4.21708 0.539664 2.77173 0.357567 1.88445 1.32575L2.65068 2.09985C3.02917 1.6877 3.6862 1.71992 4.04486 2.26321L4.92743 1.61426ZM11.5353 13.799C11.3334 14.0193 11.1242 14.1377 10.9212 14.1587L11.0122 15.2767C11.5461 15.222 11.9817 14.9238 12.3023 14.5738L11.5353 13.799ZM5.61418 5.76801C6.31473 5.0044 6.37824 3.80991 5.81081 2.95038L4.92825 3.59934C5.22388 4.04671 5.17 4.64321 4.84796 4.99391L5.61418 5.76801ZM12.3217 10.9701C12.9033 11.3246 13.0073 12.1953 12.5637 12.6787L13.3299 13.4528C14.2744 12.4232 14.0247 10.7004 12.8686 9.99595L12.3217 10.9701ZM9.89675 10.2972C10.1754 9.99295 10.6052 9.92476 10.9687 10.1458L11.5148 9.17164C10.7363 8.69804 9.76304 8.83368 9.12981 9.5231L9.89675 10.2972ZM6.55339 12.9035C5.8575 12.4404 5.11798 11.8139 4.36265 10.9679L3.57703 11.742C4.38937 12.6525 5.19666 13.3396 5.97183 13.8552L6.55339 12.9035ZM10.9205 14.1587C10.3253 14.2135 9.72672 14.1733 9.14531 14.0395L8.91237 15.1404C9.60029 15.2972 10.3083 15.3432 11.0122 15.2767L10.9205 14.1587Z" fill="white"/>
</svg>