<svg xmlns="http://www.w3.org/2000/svg" width="43" height="43" viewBox="0 0 43 43" fill="none">
  <g clip-path="url(#a)">
    <path d="M21.875 36.453v-15.76m0-3.003c-.25-3.002-1.647-9.756-5.24-12.758S7.156.679 4.662.429C4.91 3.68 6.307 10.936 9.9 13.938s9.48 3.752 11.975 3.752Zm0 0v3.002m0 0c.498-2.501 2.395-8.105 5.987-10.507s9.23-3.002 11.226-3.002c.25 2.252-.898 7.505-4.49 10.507s-9.98 3.252-12.723 3.002ZM1.667 39.455c.998-.5 4.042-1.501 8.233-1.501 5.239 0 11.975 4.503 15.717 3.002s13.471-3.002 15.717-3.002" stroke="#fff" stroke-width="2" stroke-linecap="round"/>
  </g>
  <defs>
    <clipPath id="a">
      <path fill="#fff" d="M.5.429h42v42H.5z"/>
    </clipPath>
  </defs>
</svg>
