<svg xmlns="http://www.w3.org/2000/svg" width="37" height="36" viewBox="0 0 37 36" fill="none">
  <path d="M10.143 27C6.474 27 3.5 24.037 3.5 20.382s2.974-6.617 6.643-6.617q.66 0 1.287.124m11.26-4.034a8.9 8.9 0 0 1 2.953-.502c1.015 0 1.99.17 2.897.483m-17.11 4.053a8.8 8.8 0 0 1-.549-3.065C10.881 5.95 14.846 2 19.738 2c4.557 0 8.31 3.428 8.802 7.836m-17.11 4.053a6.6 6.6 0 0 1 2.403.99M28.54 9.836c3.47 1.196 5.96 4.478 5.96 8.34 0 4.23-2.988 7.765-6.975 8.624" stroke="#F5F5F5" stroke-width="2" stroke-linecap="round"/>
  <path d="M13.5 25.5c0-2.121 0-3.182.69-3.841S15.992 21 18.214 21h1.572c2.222 0 3.333 0 4.024.659s.69 1.72.69 3.841v3c0 2.121 0 3.182-.69 3.841S22.008 33 19.786 33h-1.572c-2.222 0-3.333 0-4.024-.659s-.69-1.72-.69-3.841z" stroke="#F5F5F5" stroke-width="2"/>
  <path d="M17.5 27h3" stroke="#F5F5F5" stroke-width="2" stroke-linecap="round" stroke-linejoin="round"/>
</svg>
