<svg xmlns="http://www.w3.org/2000/svg" width="181" height="52" viewBox="0 0 181 52" fill="none">
  <path fill-rule="evenodd" clip-rule="evenodd" d="M147.903 20.0169H150.655L148.54 26.1787L150.888 32.9259H148.132L146.238 27.4832H145.476L143.729 32.9259H140.996L143.16 26.1813L141.185 20.0169H143.919L145.476 24.8801H146.234L147.903 20.0169ZM131.116 20.0169H137.677L138.547 28.3944L138.999 32.9259H136.383L136.074 29.8253H132.744L132.413 32.9259H129.795L130.279 28.3943L130.28 28.3855L131.116 20.0169ZM119.054 20.0169H127.792V28.9628H121.657V32.9011H119.054V20.0169ZM107.966 20.0169H116.737V22.6031H113.561V32.9003L110.958 32.901V22.6031H107.966V20.0169ZM97.0854 20.0169H105.711V23.72H103.107V22.6031H99.6885V30.3008H103.107V28.9565H105.711V32.904H97.0854V20.0169ZM88.4426 20V20.0169H94.4869V23.72H91.8838V22.6031H88.4649V30.3008H91.8838V28.9565H94.4869V32.904H85.8617V20H88.4426ZM135.808 27.2221H133.012L133.474 22.6031L135.328 22.6031L135.808 27.2221ZM39.2388 20H30.5V32.9011H33.1031V28.9628H39.2388V20ZM36.6357 26.3597H33.1031V22.6031H36.6357V26.3597ZM50.5697 20H41.7861V32.904H50.5697V20ZM44.3892 30.3008V22.6031H47.9666V30.3008H44.3892ZM61.9213 20H53.2961V32.904H61.9213V28.9565H59.3182V30.3008H55.8992V22.6031H59.3182V23.72H61.9213V20ZM72.2037 20H64.5034V32.9011H67.1065V22.6031H69.6006V23.72H72.2037V20ZM83.2744 20H74.4908V32.904H83.2744V20ZM77.094 30.3008V22.6031H80.6713V30.3008H77.094ZM125.189 26.3597H121.657V22.6031H125.189V26.3597Z" fill="#848484"/>
</svg>