<svg xmlns="http://www.w3.org/2000/svg" width="42" height="43" viewBox="0 0 42 43" fill="none">
  <g clip-path="url(#a)" stroke-width="2">
    <path d="M40.834 9.947c0-3.937 0-5.905-1.223-7.128s-3.192-1.223-7.128-1.223-5.905 0-7.128 1.223-1.223 3.19-1.223 7.128c0 3.936 0 5.905 1.223 7.128s3.191 1.223 7.128 1.223c3.936 0 5.905 0 7.128-1.223s1.223-3.192 1.223-7.128ZM17.869 32.912c0-3.937 0-5.905-1.223-7.128s-3.192-1.223-7.128-1.223-5.905 0-7.128 1.223-1.223 3.19-1.223 7.127 0 5.905 1.223 7.128 3.191 1.223 7.128 1.223c3.936 0 5.905 0 7.128-1.223s1.223-3.19 1.223-7.128Z" stroke="#252525"/>
    <path d="M24.133 32.91a8.35 8.35 0 1 1 16.701 0 8.35 8.35 0 0 1-16.701 0Z" stroke="#51A1FF"/>
    <path d="M1.167 9.947a8.35 8.35 0 1 1 16.702 0 8.35 8.35 0 0 1-16.702 0Z" stroke="#252525"/>
  </g>
  <defs>
    <clipPath id="a">
      <path fill="#fff" d="M0 .429h42v42H0z"/>
    </clipPath>
  </defs>
</svg>
