<svg xmlns="http://www.w3.org/2000/svg" width="97" height="97" viewBox="0 0 97 97" fill="none">
  <g clip-path="url(#a)" filter="url(#filter0_d_1_584)">
    <circle cx="48.5" cy="48.429" r="34" fill="#FBFAF8" stroke="#252525" stroke-width="2"/>
    <path d="m58.362 55.465.754 1.307a3.017 3.017 0 0 1-5.225 3.016l-6.392-11.071m-7.183-12.44-.622.358c-6.87 3.967-9.224 12.752-5.258 19.623a.72.72 0 0 0 .982.263c1.91-2.146 3.238-2.97 6.22-3.591 4.365-4.55 7.118-5.992 12.44-7.183 1.947-2.083 3.16-3.084 6.22-3.59a.72.72 0 0 0 .263-.982c-3.967-6.87-12.752-9.224-19.623-5.258zm0 0-.754-1.307" stroke="#252525" stroke-width="2" stroke-linecap="round" stroke-linejoin="round"/>
    <path d="M41.44 53.045c-1.68-3.752-5.765-14.088-1.123-16.769 4.643-2.68 11.552 6.025 13.961 9.356" stroke="#252525" stroke-width="2"/>
    <rect x="48.5" y="51.429" width="19" height="18" rx="2" fill="#FBFAF8"/>
    <path fill-rule="evenodd" clip-rule="evenodd" d="M58.193 49.429c-2.309 0-4.118 0-5.53.19-1.444.194-2.584.6-3.479 1.494-.895.895-1.3 2.035-1.494 3.48-.19 1.41-.19 3.22-.19 5.529v.114c0 2.309 0 4.118.19 5.53.194 1.444.6 2.584 1.494 3.479.895.895 2.035 1.3 3.48 1.494 1.411.19 3.22.19 5.529.19h.114c2.309 0 4.118 0 5.53-.19 1.444-.194 2.584-.6 3.479-1.494.895-.895 1.3-2.035 1.494-3.48.19-1.411.19-3.22.19-5.53v-.113c0-2.31 0-4.118-.19-5.53-.194-1.444-.6-2.584-1.494-3.48-.895-.894-2.035-1.3-3.48-1.493-1.411-.19-3.22-.19-5.529-.19zm-.693 1.5c-1.994.002-3.477.02-4.636.176-1.279.172-2.05.5-2.62 1.069-.569.57-.896 1.34-1.068 2.619-.155 1.159-.174 2.642-.176 4.636h4.164a4 4 0 0 1-.756-1.527c-.539-2.153 1.412-4.104 3.565-3.565a4 4 0 0 1 1.527.756zm-8.5 10c.002 1.994.02 3.477.176 4.636.172 1.279.5 2.05 1.069 2.62.57.569 1.34.896 2.619 1.068 1.159.155 2.642.174 4.636.176v-7.126a4.75 4.75 0 0 1-4.25 2.626.75.75 0 1 1 0-1.5 3.25 3.25 0 0 0 3.163-2.5zm10 8.5c1.994-.002 3.477-.02 4.636-.176 1.279-.172 2.05-.5 2.62-1.07.569-.57.896-1.34 1.068-2.618.155-1.16.174-2.642.176-4.636h-7.413a3.25 3.25 0 0 0 3.163 2.5.75.75 0 1 1 0 1.5A4.75 4.75 0 0 1 59 62.303zm8.5-10h-4.164c.36-.449.618-.97.757-1.527.538-2.153-1.413-4.104-3.565-3.565a4 4 0 0 0-1.528.756v-4.164c1.994.002 3.477.02 4.636.176 1.279.172 2.05.5 2.62 1.069.569.57.896 1.34 1.068 2.619.155 1.159.174 2.642.176 4.636m-8.5 0v-1.22a2.5 2.5 0 0 1 1.891-2.417 1.44 1.44 0 0 1 1.746 1.746 2.5 2.5 0 0 1-2.415 1.89zm-1.5-1.223a2.5 2.5 0 0 0-1.891-2.414 1.44 1.44 0 0 0-1.746 1.746 2.5 2.5 0 0 0 2.415 1.89H57.5z" fill="#252525"/>
  </g>
  <defs>
    <clipPath id="a">
      <path fill="#fff" d="M13.5 13.429h70v70h-70z"/>
    </clipPath>
  </defs>
</svg>
