<svg xmlns="http://www.w3.org/2000/svg" width="97" height="97" viewBox="0 0 97 97" fill="none">
  <g clip-path="url(#a)" filter="url(#filter0_d_1_611)">
    <circle cx="48.5" cy="48.429" r="34" fill="#FBFAF8" stroke="#252525" stroke-width="2"/>
    <path d="m58.362 55.465.754 1.307a3.017 3.017 0 0 1-5.225 3.016l-6.392-11.071m-7.183-12.44-.622.358c-6.87 3.967-9.224 12.752-5.258 19.623a.72.72 0 0 0 .982.263c1.91-2.146 3.238-2.97 6.22-3.591 4.365-4.55 7.118-5.992 12.44-7.183 1.947-2.083 3.16-3.084 6.22-3.59a.72.72 0 0 0 .263-.982c-3.967-6.87-12.752-9.224-19.623-5.258zm0 0-.754-1.307" stroke="#252525" stroke-width="2" stroke-linecap="round" stroke-linejoin="round"/>
    <path d="M41.44 53.045c-1.68-3.752-5.765-14.088-1.123-16.769 4.643-2.68 11.552 6.025 13.961 9.356" stroke="#252525" stroke-width="2"/>
    <path fill-rule="evenodd" clip-rule="evenodd" d="M57.631 48.429h2.737c1.167 0 2.142 0 2.916.103.817.108 1.56.348 2.157.939.6.593.844 1.331.954 2.144.105.768.105 1.734.105 2.887v.084c.31-.103.64-.157.976-.157 2.005 0 3.546 1.914 2.863 3.876l-1.176 3.376-.026.076c-.18.515-.307.88-.481 1.203a4.7 4.7 0 0 1-2.156 2.015v1.454a1 1 0 1 1-2 0v-1.005c-.195.005-.411.005-.661.005H53.5v1a1 1 0 1 1-2 0v-1.334q0-.06.007-.117a4.65 4.65 0 0 1-2.476-2.736l-.002-.008-1.369-3.93c-.683-1.961.859-3.875 2.863-3.875.337 0 .666.054.977.157v-.084c0-1.153 0-2.119.104-2.887.11-.813.355-1.551.954-2.144.598-.591 1.34-.83 2.157-.94.774-.102 1.749-.102 2.916-.102" fill="#FBFAF8"/>
    <path d="M65.5 66.429v-2m-13 2v-1.334" stroke="#252525" stroke-width="2" stroke-linecap="round"/>
    <path d="M52.5 57.429V54c0-2.155 0-3.232.761-3.902.762-.67 1.988-.67 4.439-.67h2.6c2.451 0 3.677 0 4.439.67.761.67.761 1.747.761 3.902v3.429" stroke="#252525" stroke-width="2"/>
    <path d="M53.63 64.429h10.13c.648 0 .972 0 1.262-.044 1.182-.178 2.205-.884 2.755-1.9.135-.25.237-.545.442-1.133l1.176-3.376c.436-1.253-.538-2.547-1.918-2.547-.851 0-1.61.51-1.9 1.275l-1.052 2.775c-.203.538-.305.806-.499.994a1.3 1.3 0 0 1-.366.245c-.25.11-.548.11-1.146.11h-7.328c-.308 0-.462 0-.599-.03-.32-.069-.6-.256-.777-.52-.076-.114-.128-.252-.233-.53l-1.153-3.044c-.29-.765-1.05-1.275-1.9-1.275-1.38 0-2.355 1.294-1.919 2.547l1.369 3.93.04.115c.522 1.423 1.914 2.384 3.49 2.407z" stroke="#252525" stroke-width="2"/>
  </g>
  <defs>
    <clipPath id="a">
      <path fill="#fff" d="M13.5 13.429h70v70h-70z"/>
    </clipPath>
  </defs>
</svg>
