<svg xmlns="http://www.w3.org/2000/svg" width="37" height="36" viewBox="0 0 37 36" fill="none">
  <path fill-rule="evenodd" clip-rule="evenodd" d="M10.711 22.375H9.25a1.875 1.875 0 0 0-1.866 1.694l-.009.18v.895c0 3.342 4.236 5.98 10.625 5.98 6.157 0 10.444-2.63 10.619-5.78l.006-.2v-.894a1.875 1.875 0 0 0-1.694-1.867l-.181-.008h-4.419a4.4 4.4 0 0 0-.137-1.875h4.556a3.75 3.75 0 0 1 3.75 3.75v.893C30.5 29.616 25.238 33 18 33S5.5 29.791 5.5 25.143v-.893a3.75 3.75 0 0 1 3.314-3.725 12 12 0 0 0 1.897 1.85m12.65-6.161a6.25 6.25 0 1 0-8.305 2.3 4.375 4.375 0 0 1 5.889-.001 6.25 6.25 0 0 0 2.416-2.3m-3.687.828a4.374 4.374 0 1 1-3.348-8.083 4.374 4.374 0 0 1 3.348 8.083" fill="#fff"/>
  <path d="M18 24.25a2.5 2.5 0 0 1-2.299-1.515q-.605-.144-1.189-.36l-.02-.008a10 10 0 0 1-3.107-1.867 10 10 0 1 1 16.571-8.438c.049.516-.375.937-.893.937s-.932-.42-.992-.936A8.125 8.125 0 1 0 14.87 20.5l.05.02q.375.155.77.272a2.5 2.5 0 0 1 4.731 1.583A2.5 2.5 0 0 1 18 24.25" fill="#fff"/>
</svg>
