<svg xmlns="http://www.w3.org/2000/svg" width="43" height="45" viewBox="0 0 43 45" fill="none">
  <path d="M34.642 36.596H8.358C4.872 36.596 4 33.68 4 32.22V5.97c0-1.16.46-2.273 1.277-3.094a4.35 4.35 0 0 1 3.081-1.281h17.568a4.35 4.35 0 0 1 3.082 1.281 4.38 4.38 0 0 1 1.276 3.094v13.125m4.358 17.5c-1.453 0-4.358-.875-4.358-4.375V19.096m4.358 17.5c3.486 0 4.358-2.916 4.358-4.375V19.096h-8.716" stroke="#252525" stroke-width="2" stroke-linecap="round" stroke-linejoin="round"/>
  <path d="M18.247 37.146c-.942-.966-1.413-1.449-1.413-2.883 0-1.435.471-1.918 1.413-2.884 1.88-1.93 5.035-4.116 9.67-4.116s7.79 2.187 9.67 4.116c.943.966 1.414 1.45 1.414 2.884s-.471 1.917-1.413 2.883c-1.881 1.93-5.036 4.117-9.67 4.117-4.636 0-7.79-2.187-9.671-4.117Z" fill="#FBFAF8" stroke="#FBFAF8" stroke-width="7"/>
  <path d="M18.247 37.146c-.942-.966-1.413-1.449-1.413-2.883 0-1.435.471-1.918 1.413-2.884 1.88-1.93 5.035-4.116 9.67-4.116s7.79 2.187 9.67 4.116c.943.966 1.414 1.45 1.414 2.884s-.471 1.917-1.413 2.883c-1.881 1.93-5.036 4.117-9.67 4.117-4.636 0-7.79-2.187-9.671-4.117Z" stroke="#51A1FF" stroke-width="2"/>
  <path d="M30.833 33.68a2.917 2.917 0 1 1-5.833 0 2.917 2.917 0 0 1 5.833 0Z" stroke="#51A1FF" stroke-width="2"/>
</svg>
