<svg xmlns="http://www.w3.org/2000/svg" width="181" height="52" viewBox="0 0 181 52" fill="none">
  <path fill-rule="evenodd" clip-rule="evenodd" d="M17.2142 25.0014V10.2856H20.853V25.0014C20.853 31.5434 26.1563 36.8468 32.6983 36.8468C39.2403 36.8468 44.5436 31.5434 44.5436 25.0014V14.9148H48.1823V25.0014C48.1823 33.553 41.2499 40.4855 32.6983 40.4855C24.1467 40.4855 17.2142 33.553 17.2142 25.0014ZM43.1558 10.2856V24.4334C43.1558 30.2336 38.4538 34.9356 32.6536 34.9356C26.8534 34.9356 22.1514 30.2336 22.1514 24.4334V14.9148H25.7902V24.4334C25.7902 28.224 28.863 31.2969 32.6536 31.2969C36.4442 31.2969 39.517 28.224 39.517 24.4334V10.2856H43.1558ZM27.259 19.4652H30.8977V24.3873C30.8977 25.2799 31.6213 26.0036 32.5143 26.0036C33.4071 26.0036 34.1309 25.2798 34.1309 24.387V19.4652H37.7697V24.387C37.7697 27.2894 35.4168 29.6423 32.5143 29.6423C29.6121 29.6423 27.259 27.2899 27.259 24.3873V19.4652ZM71.4771 15.1534C72.878 15.1534 74.1388 15.4669 75.2596 16.094C76.3936 16.721 77.2809 17.5883 77.9213 18.6957C78.5617 19.7897 78.8819 21.0238 78.8819 22.3981C78.8819 23.7723 78.5617 25.0131 77.9213 26.1205C77.2809 27.2145 76.3936 28.0751 75.2596 28.7022C74.1388 29.3292 72.878 29.6428 71.4771 29.6428C70.223 29.6428 69.0756 29.3959 68.0349 28.9023C66.9942 28.3953 66.1336 27.6948 65.4532 26.8009C64.7861 25.8937 64.3592 24.8597 64.1724 23.6989H62.3312V29.4026H59.1091V15.3935H62.3312V20.8971H64.2124C64.4259 19.7764 64.8662 18.7824 65.5333 17.9151C66.2137 17.0346 67.0676 16.3541 68.0949 15.8738C69.1223 15.3935 70.2496 15.1534 71.4771 15.1534ZM71.4771 26.881C72.251 26.881 72.9514 26.6942 73.5785 26.3206C74.2056 25.947 74.6992 25.42 75.0594 24.7396C75.4197 24.0591 75.5998 23.2786 75.5998 22.3981C75.5998 21.5175 75.4197 20.737 75.0594 20.0565C74.6992 19.3761 74.2056 18.8491 73.5785 18.4755C72.9514 18.1019 72.251 17.9151 71.4771 17.9151C70.7033 17.9151 70.0028 18.1019 69.3757 18.4755C68.7487 18.8491 68.255 19.3761 67.8948 20.0565C67.5346 20.737 67.3544 21.5175 67.3544 22.3981C67.3544 23.2786 67.5346 24.0591 67.8948 24.7396C68.255 25.42 68.7487 25.947 69.3757 26.3206C70.0028 26.6942 70.7033 26.881 71.4771 26.881ZM93.9769 18.0352H87.3126L87.3326 29.4026H84.1105V15.3935H93.9969L93.9769 18.0352ZM99.9905 28.7022C101.165 29.3292 102.479 29.6428 103.933 29.6428C105.387 29.6428 106.695 29.3292 107.856 28.7022C109.016 28.0751 109.93 27.2145 110.597 26.1205C111.264 25.0131 111.598 23.7723 111.598 22.3981C111.598 21.0238 111.264 19.7897 110.597 18.6957C109.93 17.5883 109.016 16.721 107.856 16.094C106.695 15.4669 105.387 15.1534 103.933 15.1534C102.479 15.1534 101.165 15.4669 99.9905 16.094C98.8297 16.721 97.9158 17.5883 97.2487 18.6957C96.5949 19.7897 96.2681 21.0238 96.2681 22.3981C96.2681 23.7723 96.5949 25.0131 97.2487 26.1205C97.9158 27.2145 98.8297 28.0751 99.9905 28.7022ZM106.174 26.3206C105.507 26.6942 104.76 26.881 103.933 26.881C103.106 26.881 102.359 26.6942 101.692 26.3206C101.024 25.9337 100.497 25.4 100.111 24.7196C99.737 24.0391 99.5502 23.2653 99.5502 22.3981C99.5502 21.5308 99.737 20.757 100.111 20.0766C100.497 19.3961 101.024 18.8691 101.692 18.4955C102.359 18.1086 103.106 17.9151 103.933 17.9151C104.76 17.9151 105.507 18.1086 106.174 18.4955C106.842 18.8691 107.362 19.3961 107.736 20.0766C108.122 20.757 108.316 21.5308 108.316 22.3981C108.316 23.2653 108.122 24.0391 107.736 24.7196C107.362 25.4 106.842 25.9337 106.174 26.3206ZM122.861 15.3935C124.102 15.3935 125.176 15.6003 126.083 16.0139C127.004 16.4275 127.711 17.0146 128.205 17.7751C128.698 18.5355 128.945 19.4361 128.945 20.4768C128.945 21.5041 128.698 22.4047 128.205 23.1786C127.711 23.9391 127.004 24.5261 126.083 24.9397C125.176 25.34 124.102 25.5401 122.861 25.5401H120.039V29.4026H116.797V15.3935H122.861ZM122.681 22.8984C123.655 22.8984 124.396 22.6916 124.903 22.278C125.41 21.851 125.663 21.2506 125.663 20.4768C125.663 19.6896 125.41 19.0892 124.903 18.6756C124.396 18.2487 123.655 18.0352 122.681 18.0352H120.039V22.8984H122.681ZM137.008 15.3935H133.786V29.4026H136.848L143.532 20.2967V29.4026H146.734V15.3935H143.692L137.008 24.5194V15.3935ZM164.111 15.3935V29.4026H160.909V25.6802H157.947L155.466 29.4026H152.043L154.965 25.1799C154.018 24.7929 153.291 24.2126 152.784 23.4387C152.277 22.6516 152.023 21.7109 152.023 20.6169C152.023 19.5362 152.27 18.6089 152.764 17.8351C153.257 17.0479 153.958 16.4475 154.865 16.0339C155.772 15.607 156.84 15.3935 158.067 15.3935H164.111ZM158.147 18.0352C157.227 18.0352 156.52 18.2487 156.026 18.6756C155.546 19.1026 155.305 19.7363 155.305 20.5769C155.305 21.3907 155.539 22.0178 156.006 22.4581C156.473 22.8984 157.16 23.1185 158.067 23.1185H160.909V18.0352H158.147ZM61.6339 40.3864C61.0735 40.3864 60.5665 40.2637 60.1129 40.0182C59.6646 39.7674 59.3123 39.4258 59.0562 38.9935C58.8 38.5559 58.6719 38.0649 58.6719 37.5206C58.6719 36.9762 58.8 36.4879 59.0562 36.0556C59.3123 35.618 59.6672 35.2765 60.1209 35.031C60.5745 34.7801 61.0815 34.6547 61.6419 34.6547C62.0795 34.6547 62.4797 34.7294 62.8426 34.8789C63.2055 35.023 63.5151 35.2391 63.7712 35.5273L63.2509 36.0316C62.8293 35.5887 62.3036 35.3672 61.6739 35.3672C61.2576 35.3672 60.8814 35.4606 60.5451 35.6474C60.2089 35.8342 59.9448 36.093 59.7526 36.4239C59.5658 36.7494 59.4725 37.115 59.4725 37.5206C59.4725 37.9262 59.5658 38.2944 59.7526 38.6253C59.9448 38.9508 60.2089 39.207 60.5451 39.3938C60.8814 39.5806 61.2576 39.674 61.6739 39.674C62.2983 39.674 62.824 39.4498 63.2509 39.0015L63.7712 39.5059C63.5151 39.7941 63.2029 40.0129 62.8346 40.1623C62.4717 40.3117 62.0715 40.3864 61.6339 40.3864ZM70.2632 35.4152H68.3419V40.3224H67.5574V35.4152H65.6441V34.7188H70.2632V35.4152ZM76.7357 35.2391C76.3194 34.8922 75.7484 34.7188 75.0226 34.7188H72.8371V40.3224H73.6377V38.6253H75.0226C75.7484 38.6253 76.3194 38.4519 76.7357 38.105C77.1519 37.7581 77.3601 37.2804 77.3601 36.672C77.3601 36.0636 77.1519 35.586 76.7357 35.2391ZM76.1593 37.6086C75.8925 37.8221 75.5055 37.9289 74.9985 37.9289H73.6377V35.4152H74.9985C75.5055 35.4152 75.8925 35.5246 76.1593 35.7434C76.4261 35.9569 76.5596 36.2664 76.5596 36.672C76.5596 37.0776 76.4261 37.3898 76.1593 37.6086ZM80.4576 38.9215L79.8412 40.3224H79.0167L81.5544 34.7188H82.3469L84.8925 40.3224H84.052L83.4356 38.9215H80.4576ZM83.1554 38.2811L81.9466 35.5353L80.7378 38.2811H83.1554ZM91.3816 34.7188H90.445L88.9801 36.7681L87.5151 34.7188H86.5945L88.4997 37.4405L86.4584 40.3224H87.379L88.9801 38.089L90.5891 40.3224H91.5337L89.4844 37.4085L91.3816 34.7188ZM96.4615 40.3864C95.8959 40.3864 95.3862 40.2637 94.9326 40.0182C94.4789 39.7674 94.1214 39.4232 93.8599 38.9855C93.6037 38.5479 93.4756 38.0596 93.4756 37.5206C93.4756 36.9816 93.6037 36.4932 93.8599 36.0556C94.1214 35.618 94.4789 35.2765 94.9326 35.031C95.3862 34.7801 95.8959 34.6547 96.4615 34.6547C97.0219 34.6547 97.5289 34.7801 97.9825 35.031C98.4362 35.2765 98.7911 35.618 99.0472 36.0556C99.3034 36.4879 99.4315 36.9762 99.4315 37.5206C99.4315 38.0649 99.3034 38.5559 99.0472 38.9935C98.7911 39.4258 98.4362 39.7674 97.9825 40.0182C97.5289 40.2637 97.0219 40.3864 96.4615 40.3864ZM96.4615 39.674C96.8725 39.674 97.2407 39.5806 97.5663 39.3938C97.8971 39.207 98.156 38.9508 98.3428 38.6253C98.5349 38.2944 98.631 37.9262 98.631 37.5206C98.631 37.115 98.5349 36.7494 98.3428 36.4239C98.156 36.093 97.8971 35.8342 97.5663 35.6474C97.2407 35.4606 96.8725 35.3672 96.4615 35.3672C96.0506 35.3672 95.677 35.4606 95.3408 35.6474C95.0099 35.8342 94.7484 36.093 94.5563 36.4239C94.3695 36.7494 94.2761 37.115 94.2761 37.5206C94.2761 37.9262 94.3695 38.2944 94.5563 38.6253C94.7484 38.9508 95.0099 39.207 95.3408 39.3938C95.677 39.5806 96.0506 39.674 96.4615 39.674ZM106.673 37.9048C106.481 37.67 106.196 37.5072 105.817 37.4165C106.094 37.3098 106.308 37.1497 106.457 36.9362C106.612 36.7227 106.689 36.4639 106.689 36.1597C106.689 35.6954 106.516 35.3405 106.169 35.095C105.828 34.8442 105.35 34.7188 104.736 34.7188H102.327V40.3224H104.888C105.566 40.3224 106.081 40.189 106.433 39.9221C106.791 39.6553 106.97 39.2791 106.97 38.7934C106.97 38.4305 106.871 38.1343 106.673 37.9048ZM104.68 37.1844H103.119V35.3512H104.68C105.064 35.3512 105.361 35.4312 105.569 35.5913C105.777 35.7461 105.881 35.9729 105.881 36.2718C105.881 36.5706 105.777 36.7974 105.569 36.9522C105.366 37.107 105.07 37.1844 104.68 37.1844ZM106.161 38.7294C106.161 39.3698 105.731 39.69 104.872 39.69H103.119V37.7928H104.872C105.299 37.7928 105.619 37.8701 105.833 38.0249C106.052 38.1743 106.161 38.4092 106.161 38.7294ZM110.573 38.9215L109.956 40.3224H109.132L111.669 34.7188H112.462L115.007 40.3224H114.167L113.55 38.9215H110.573ZM113.27 38.2811L112.062 35.5353L110.853 38.2811H113.27ZM121.594 40.3224H122.395V34.7188H121.594V37.1283H118.376V34.7188H117.576V40.3224H118.376V37.8248H121.594V40.3224ZM125.743 34.7188H126.536V39.0416L129.85 34.7188H130.587V40.3224H129.802V36.0076L126.48 40.3224H125.743V34.7188ZM138.001 40.3224V39.626H134.735V37.8168H137.545V37.1363H134.735V35.4152H137.889V34.7188H133.935V40.3224H138.001Z" fill="#848484"/>
</svg>